<svg width="481" height="241" viewBox="0 0 481 241" fill="none" xmlns="http://www.w3.org/2000/svg">
<rect width="480.664" height="240.853" fill="#0804FF"/>
<path d="M242.421 85.2897C246.12 85.2897 248.562 87.4599 248.562 91.085C248.562 94.7102 246.12 96.979 242.421 96.979H238.697V102.552H235.171V85.2897H242.421ZM242.273 93.6251C244.098 93.6251 244.986 92.6387 244.986 91.1344C244.986 89.6054 244.098 88.6436 242.273 88.6436H238.697V93.6251H242.273Z" fill="white"/>
<path d="M259.982 84.9938C265.062 84.9938 268.984 88.8409 268.984 93.921C268.984 99.0012 265.062 102.848 259.982 102.848C254.902 102.848 251.006 99.0012 251.006 93.921C251.006 88.8409 254.902 84.9938 259.982 84.9938ZM259.982 88.3477C256.875 88.3477 254.557 90.6905 254.557 93.921C254.557 97.1516 256.875 99.4944 259.982 99.4944C263.09 99.4944 265.408 97.1516 265.408 93.921C265.408 90.6905 263.09 88.3477 259.982 88.3477Z" fill="white"/>
<path d="M280.508 102.848C275.354 102.848 271.581 99.0012 271.581 93.921C271.581 88.8409 275.354 84.9938 280.508 84.9938C284.626 84.9938 287.832 87.5339 288.843 91.2083H285.07C284.256 89.4328 282.604 88.3477 280.483 88.3477C277.302 88.3477 275.132 90.6905 275.132 93.921C275.132 97.1516 277.302 99.4944 280.483 99.4944C282.604 99.4944 284.256 98.4093 285.07 96.6337H288.843C287.832 100.308 284.626 102.848 280.508 102.848Z" fill="white"/>
<path d="M300.189 102.848C295.035 102.848 291.262 99.0012 291.262 93.921C291.262 88.8409 295.035 84.9938 300.189 84.9938C304.308 84.9938 307.514 87.5339 308.525 91.2083H304.752C303.938 89.4328 302.285 88.3477 300.165 88.3477C296.983 88.3477 294.813 90.6905 294.813 93.921C294.813 97.1516 296.983 99.4944 300.165 99.4944C302.285 99.4944 303.938 98.4093 304.752 96.6337H308.525C307.514 100.308 304.308 102.848 300.189 102.848Z" fill="white"/>
<path d="M322.189 85.2897H326.233V102.552H322.707V95.3267L323.027 90.4685L315.506 102.552H311.461V85.2897H314.988V92.5154L314.667 97.3735L322.189 85.2897Z" fill="white"/>
<path d="M337.36 83.4895C335.19 83.4895 333.217 82.0345 333.217 79.5438V78.8779H336.004V79.4451C336.004 80.2836 336.547 80.8261 337.36 80.8261C338.174 80.8261 338.717 80.2836 338.717 79.4451V78.8779H341.479V79.5438C341.479 82.0345 339.506 83.4895 337.36 83.4895ZM340.714 85.2897H344.759V102.552H341.232V95.3267L341.553 90.4685L334.031 102.552H329.987V85.2897H333.513V92.5154L333.193 97.3735L340.714 85.2897Z" fill="white"/>
<path d="M356.922 102.848C351.768 102.848 347.994 99.0012 347.994 93.921C347.994 88.8409 351.768 84.9938 356.922 84.9938C361.04 84.9938 364.246 87.5339 365.257 91.2083H361.484C360.67 89.4328 359.018 88.3477 356.897 88.3477C353.716 88.3477 351.546 90.6905 351.546 93.921C351.546 97.1516 353.716 99.4944 356.897 99.4944C359.018 99.4944 360.67 98.4093 361.484 96.6337H365.257C364.246 100.308 361.04 102.848 356.922 102.848Z" fill="white"/>
<path d="M382.744 102.552H378.329L371.844 94.4882V102.552H368.317V85.2897H371.844V92.9346L377.984 85.2897H382.349L375.567 93.6498L382.744 102.552Z" fill="white"/>
<path d="M396.17 85.2897H400.215V102.552H396.688V95.3267L397.009 90.4685L389.487 102.552H385.443V85.2897H388.969V92.5154L388.649 97.3735L396.17 85.2897Z" fill="white"/>
<path d="M415.682 88.6436H407.618V92.1208H415.016V95.4747H407.618V99.1984H415.682V102.552H404.092V85.2897H415.682V88.6436Z" fill="white"/>
<path d="M243.457 129.115C238.303 129.115 234.53 125.268 234.53 120.187C234.53 115.107 238.303 111.26 243.457 111.26C247.575 111.26 250.781 113.8 251.792 117.475H248.019C247.205 115.699 245.553 114.614 243.432 114.614C240.251 114.614 238.081 116.957 238.081 120.187C238.081 123.418 240.251 125.761 243.432 125.761C245.553 125.761 247.205 124.676 248.019 122.9H251.792C250.781 126.575 247.575 129.115 243.457 129.115Z" fill="white"/>
<path d="M267.037 111.556V114.91H262.056V128.819H258.529V114.91H253.572V111.556H267.037Z" fill="white"/>
<path d="M285.078 111.556L276.126 128.819H272.18L275.288 122.851L269.344 111.556H273.29L277.261 119.028L281.132 111.556H285.078Z" fill="white"/>
<path d="M300.277 125.465H302.743V132.247H299.216V128.819H287.527V132.247H284V125.465H286.442C286.836 125.07 287.083 124.38 287.28 123.171L289.13 111.556H300.277V125.465ZM290.733 123.517C290.61 124.306 290.437 124.947 290.264 125.465H296.75V114.91H292.114L290.733 123.517Z" fill="white"/>
<path d="M317.155 114.91H309.091V118.387H316.489V121.741H309.091V125.465H317.155V128.819H305.564V111.556H317.155V114.91Z" fill="white"/>
<path d="M331.408 111.556H334.935V128.819H331.408V121.667H323.739V128.819H320.212V111.556H323.739V118.313H331.408V111.556Z" fill="white"/>
<path d="M348.005 111.556H351.532V128.819H348.005V122.727C347.118 123.122 345.934 123.443 344.282 123.443C340.657 123.443 338.19 121.642 338.19 117.524V111.556H341.742V117.08C341.742 119.349 342.95 120.089 345.022 120.089C346.205 120.089 347.315 119.891 348.005 119.448V111.556Z" fill="white"/>
<path d="M367.096 114.91H359.032V118.387H366.43V121.741H359.032V125.465H367.096V128.819H355.505V111.556H367.096V114.91Z" fill="white"/>
<path d="M378.439 129.115C373.285 129.115 369.512 125.268 369.512 120.187C369.512 115.107 373.285 111.26 378.439 111.26C382.558 111.26 385.764 113.8 386.775 117.475H383.001C382.188 115.699 380.535 114.614 378.415 114.614C375.233 114.614 373.063 116.957 373.063 120.187C373.063 123.418 375.233 125.761 378.415 125.761C380.535 125.761 382.188 124.676 383.001 122.9H386.775C385.764 126.575 382.558 129.115 378.439 129.115Z" fill="white"/>
<path d="M404.261 128.819H399.847L393.361 120.755V128.819H389.835V111.556H393.361V119.201L399.502 111.556H403.867L397.085 119.916L404.261 128.819Z" fill="white"/>
<path d="M417.688 111.556H421.732V128.819H418.206V121.593L418.526 116.735L411.005 128.819H406.96V111.556H410.487V118.782L410.166 123.64L417.688 111.556Z" fill="white"/>
<path d="M437.2 114.91H429.136V118.387H436.534V121.741H429.136V125.465H437.2V128.819H425.609V111.556H437.2V114.91Z" fill="white"/>
<path d="M243.408 137.527C248.488 137.527 252.409 141.374 252.409 146.454C252.409 151.534 248.488 155.381 243.408 155.381C238.327 155.381 234.431 151.534 234.431 146.454C234.431 141.374 238.327 137.527 243.408 137.527ZM243.408 140.88C240.3 140.88 237.982 143.223 237.982 146.454C237.982 149.684 240.3 152.027 243.408 152.027C246.515 152.027 248.833 149.684 248.833 146.454C248.833 143.223 246.515 140.88 243.408 140.88Z" fill="white"/>
<path d="M267.76 137.822V141.176H262.778V155.085H259.252V141.176H254.295V137.822H267.76Z" fill="white"/>
<path d="M277.81 137.822C281.51 137.822 283.951 139.993 283.951 143.618C283.951 147.243 281.51 149.512 277.81 149.512H274.087V155.085H270.56V137.822H277.81ZM277.662 146.158C279.487 146.158 280.375 145.171 280.375 143.667C280.375 142.138 279.487 141.176 277.662 141.176H274.087V146.158H277.662Z" fill="white"/>
<path d="M292.47 137.822H299.893V155.085H296.366V149.142H294.171L289.93 155.085H285.614L290.25 148.797C287.957 148.081 286.576 146.232 286.576 143.47C286.576 139.993 288.746 137.822 292.47 137.822ZM292.84 145.936H296.366V141.176H292.84C291.015 141.176 290.127 142.113 290.127 143.568C290.127 145.023 291.015 145.936 292.84 145.936Z" fill="white"/>
<path d="M318.85 151.731H321.316V158.513H317.79V155.085H306.101V158.513H302.574V151.731H305.016C305.41 151.337 305.657 150.646 305.854 149.438L307.704 137.822H318.85V151.731ZM309.306 149.783C309.183 150.572 309.011 151.213 308.838 151.731H315.324V141.176H310.687L309.306 149.783Z" fill="white"/>
<path d="M331.511 144.308C335.284 144.308 337.356 146.182 337.356 149.684C337.356 153.161 335.136 155.085 331.437 155.085H324.138V137.822H327.664V144.308H331.511ZM339.403 137.822H342.929V155.085H339.403V137.822ZM331.314 151.731C332.966 151.731 333.805 151.016 333.805 149.635C333.805 148.254 333.04 147.613 331.388 147.613H327.664V151.731H331.314Z" fill="white"/>
<path d="M138.441 130.305C138.174 131.925 136.926 133.257 135.009 133.257H129.126L129.616 127.846H135.997C136.912 127.846 137.47 127.846 137.951 128.337C138.39 128.787 138.551 129.585 138.441 130.305Z" fill="white"/>
<path d="M157.689 111.12C158.859 108.309 159.165 105.555 159.165 102.265V98.8214H164.576V111.12H157.689Z" fill="white"/>
<path d="M115.383 104.233H109.48V98.8214H115.383C117.322 98.8214 118.334 100.154 118.334 101.773C118.334 103.304 117.261 104.233 115.383 104.233Z" fill="white"/>
<path fill-rule="evenodd" clip-rule="evenodd" d="M204.157 182C185.409 204.61 138.287 195.108 98.4946 160.341C58.7019 125.573 41.8045 79.5745 60.5524 56.9649C79.3003 34.3554 126.422 43.8571 166.214 78.6246C206.007 113.392 222.904 159.391 204.157 182ZM172.939 120.958L171.955 127.846H180.318L177.367 147.031H184.254L187.205 127.846H195.568L196.552 120.958H172.939ZM158.181 133.257L164.084 120.958H171.955L158.673 147.031H150.802L154.246 140.144H150.802L146.867 120.958H154.246L156.705 133.257H158.181ZM136.48 120.958H123.732L119.81 147.031H126.674L128.145 140.144H134.028C136.582 140.144 139.223 139.367 141.383 137.684C143.672 135.899 145.385 133.362 145.795 130.797C146.208 128.025 145.12 125.235 143.344 123.418C141.668 121.704 139.253 120.958 136.48 120.958ZM111.447 120.958H121.286L107.02 134.241L117.842 147.031H108.004L99.6408 137.192H99.1489L97.6731 147.031H90.2941L94.2295 120.958H101.609L100.133 130.797H100.625L111.447 120.958ZM146.867 118.007H174.415V111.12H171.463V91.9343H152.278V101.773C152.278 105.234 151.22 108.484 149.818 111.12H146.867V118.007ZM133.092 118.007L135.552 111.12H131.617L124.73 91.9343H132.109L136.536 104.233H138.012L142.439 91.9343H149.818L140.471 118.007H133.092ZM109.48 111.12H115.383C120.424 111.12 125.713 107.517 125.713 101.773C125.713 96.0285 121.333 91.9343 115.383 91.9343H102.1V118.007H109.48V111.12ZM91.2779 98.8214V118.007H84.3908V98.8214H76.0279V91.9343H99.6408V98.8214H91.2779Z" fill="white"/>
<path d="M172.939 120.958L171.955 127.846H180.318L177.366 147.031H184.254L187.205 127.846H195.568L196.552 120.958H172.939Z" fill="#0804FF"/>
<path d="M164.084 120.958L158.181 133.257H156.705L154.246 120.958H146.866L150.802 140.144H154.246L150.802 147.031H158.673L171.955 120.958H164.084Z" fill="#0804FF"/>
<path d="M136.48 120.958H123.732L119.81 147.031H126.674L128.145 140.144H134.028C136.582 140.144 139.222 139.367 141.383 137.684C143.672 135.899 145.385 133.362 145.795 130.797C146.208 128.025 145.12 125.235 143.344 123.418C141.668 121.704 139.253 120.958 136.48 120.958ZM138.441 130.305C138.174 131.925 136.926 133.257 135.009 133.257H129.125L129.616 127.846H135.989C136.908 127.846 137.468 127.844 137.951 128.338C138.39 128.787 138.551 129.585 138.441 130.305Z" fill="#0804FF"/>
<path d="M121.286 120.958H111.447L100.625 130.797H100.133L101.608 120.958H94.2294L90.294 147.031H97.673L99.1488 137.192H99.6407L108.004 147.031H117.842L107.02 134.241L121.286 120.958Z" fill="#0804FF"/>
<path d="M146.866 118.007H174.415V111.12H171.463V91.9343H152.278V101.773C152.278 105.234 151.22 108.484 149.818 111.12H146.866V118.007ZM157.689 111.12C158.859 108.309 159.165 105.555 159.165 102.265V98.8214H164.576V111.12H157.689Z" fill="#0804FF"/>
<path d="M135.552 111.12L133.092 118.007H140.471L149.818 91.9343H142.439L138.012 104.233H136.536L132.108 91.9343H124.729L131.616 111.12H135.552Z" fill="#0804FF"/>
<path d="M109.479 111.12H115.383C120.424 111.12 125.713 107.518 125.713 101.773C125.713 96.0285 121.333 91.9343 115.383 91.9343H102.1V118.007H109.479V111.12ZM115.383 104.233H109.479V98.8214H115.383C117.322 98.8214 118.334 100.154 118.334 101.773C118.334 103.304 117.261 104.233 115.383 104.233Z" fill="#0804FF"/>
<path d="M91.2778 118.007V98.8214H99.6407V91.9343H76.0278V98.8214H84.3907V118.007H91.2778Z" fill="#0804FF"/>
</svg>
