<svg width="240" height="241" viewBox="0 0 240 241" fill="none" xmlns="http://www.w3.org/2000/svg">
<rect width="239.811" height="240.853" fill="black"/>
<path d="M88.367 147.348C97.6729 158.282 121.229 153.516 140.981 136.703C160.733 119.891 169.201 97.3993 159.895 86.4662C150.589 75.5332 127.033 80.2991 107.281 97.1113C87.5294 113.923 79.0612 136.415 88.367 147.348Z" fill="white"/>
<path d="M148.886 147.348C158.192 158.282 181.748 153.516 201.5 136.703C221.251 119.891 229.72 97.3993 220.414 86.4662C211.108 75.5332 187.552 80.2991 167.8 97.1113C148.048 113.923 139.58 136.415 148.886 147.348Z" fill="white"/>
<path d="M29.3619 147.348C38.6677 158.282 62.2237 153.516 81.9756 136.703C101.727 119.891 110.196 97.3993 100.89 86.4662C91.584 75.5332 68.028 80.2991 48.2761 97.1113C28.5242 113.923 20.056 136.415 29.3619 147.348Z" fill="white"/>
</svg>
