<svg width="240" height="241" viewBox="0 0 240 241" fill="none" xmlns="http://www.w3.org/2000/svg">
<rect width="239.811" height="240.853" fill="white"/>
<path d="M68.1833 119.623H60.2311L57.9825 128.014H65.9347L64.2894 134.321H56.3372L53.4854 145.18H46.2461L49.1528 134.321H41.2005L38.3487 145.18H31.1642L34.0161 134.321H26.0638L27.7091 128.014H35.6614L37.8551 119.623H29.9028L31.603 113.316H39.5552L42.2974 102.951H49.4818L46.7397 113.316H54.6371L57.3792 102.951H64.6185L61.8763 113.316H69.8286L68.1833 119.623ZM50.798 128.014L52.9918 119.623H45.0944L42.9006 128.014H50.798ZM94.2993 106.79C102.526 106.79 107.955 111.616 107.955 119.678C107.955 127.74 102.526 132.786 94.2993 132.786H86.018V145.18H78.1754V106.79H94.2993ZM93.9703 125.327C98.0286 125.327 100.003 123.133 100.003 119.788C100.003 116.388 98.0286 114.249 93.9703 114.249H86.018V125.327H93.9703ZM132.915 145.838C121.453 145.838 113.062 137.283 113.062 125.985C113.062 114.687 121.453 106.132 132.915 106.132C142.074 106.132 149.203 111.781 151.452 119.952H143.061C141.251 116.004 137.576 113.591 132.86 113.591C125.785 113.591 120.959 118.801 120.959 125.985C120.959 133.17 125.785 138.38 132.86 138.38C137.576 138.38 141.251 135.967 143.061 132.018H151.452C149.203 140.189 142.074 145.838 132.915 145.838ZM176.026 106.132C187.324 106.132 196.044 114.687 196.044 125.985C196.044 137.283 187.324 145.838 176.026 145.838C164.729 145.838 156.063 137.283 156.063 125.985C156.063 114.687 164.729 106.132 176.026 106.132ZM176.026 113.591C169.116 113.591 163.961 118.801 163.961 125.985C163.961 133.17 169.116 138.38 176.026 138.38C182.936 138.38 188.092 133.17 188.092 125.985C188.092 118.801 182.936 113.591 176.026 113.591Z" fill="black"/>
</svg>
