<svg width="240" height="241" viewBox="0 0 240 241" fill="none" xmlns="http://www.w3.org/2000/svg">
<rect width="239.811" height="240.853" fill="#0804FF"/>
<path d="M73.6223 129.495C76.1154 143.634 98.844 151.445 124.388 146.941C149.932 142.437 168.619 127.323 166.126 113.184C163.632 99.0452 140.904 91.2344 115.36 95.7385C89.8157 100.243 71.1292 115.356 73.6223 129.495Z" fill="white"/>
<path d="M73.6223 189.969C76.1154 204.108 98.844 211.919 124.388 207.415C149.932 202.911 168.619 187.797 166.126 173.658C163.632 159.519 140.904 151.708 115.36 156.213C89.8157 160.717 71.1292 175.83 73.6223 189.969Z" fill="white"/>
<path d="M73.6223 69.0211C76.1154 83.1603 98.844 90.971 124.388 86.4669C149.932 81.9628 168.619 66.8494 166.126 52.7103C163.632 38.5712 140.904 30.7605 115.36 35.2646C89.8157 39.7687 71.1292 54.882 73.6223 69.0211Z" fill="white"/>
</svg>
