<svg width="112" height="107" viewBox="0 0 112 107" fill="none" xmlns="http://www.w3.org/2000/svg">
<path d="M61.8384 1.71338L61.271 3.86377L55.3765 26.1948H70.4429L76.5679 2.98877L76.9038 1.71338H97.5063L96.939 3.86377L91.0444 26.1948H109.776L109.217 28.3394L105.34 43.2358L105.007 44.5171H86.2593L81.8765 60.9097H100.6L100.042 63.0542L96.1655 77.9507L95.8315 79.2319H77.0903L70.7056 103.601L70.3706 104.879H49.7593L50.3345 102.724L56.6089 79.2319H41.4224L35.0376 103.601L34.7026 104.879H14.231L14.7935 102.732L20.9517 79.2319H2.21631L2.77393 77.0874L6.65088 62.1909L6.98486 60.9097H25.7241L29.9995 44.5171H11.2437L11.8237 42.3589L15.8306 27.4634L16.1714 26.1948H34.9038L41.0288 2.98877L41.3657 1.71338H61.8384ZM46.3237 60.9097H61.3921L65.6685 44.5171H50.5991L46.3237 60.9097Z" fill="black" stroke="black" stroke-width="3.42622"/>
</svg>
