<svg width="385" height="126" viewBox="0 0 385 126" fill="none" xmlns="http://www.w3.org/2000/svg">
<path d="M70.6059 55.8768C62.591 49.0652 66.0849 31.8229 78.4096 17.365C90.7344 2.90718 107.223 -3.29129 115.238 3.52033C123.253 10.332 119.759 27.5743 107.434 42.0321C95.1092 56.4899 78.6207 62.6884 70.6059 55.8768Z" fill="#0804FF"/>
<path d="M134.875 71.3945C142.318 63.9635 159.251 68.8226 172.696 82.2477C186.142 95.6729 191.008 112.58 183.566 120.011C176.124 127.442 159.191 122.583 145.745 109.158C132.3 95.7329 127.433 78.8256 134.875 71.3945Z" fill="#0804FF"/>
<path d="M70.6059 69.9954C62.591 76.807 66.0849 94.0493 78.4096 108.507C90.7344 122.965 107.223 129.163 115.238 122.352C123.253 115.54 119.759 98.2979 107.434 83.8401C95.1092 69.3822 78.6207 63.1838 70.6059 69.9954Z" fill="#0804FF"/>
<path d="M4.30681 2.76674C-3.70805 9.57836 -0.21419 26.8207 12.1105 41.2785C24.4353 55.7363 40.9238 61.9348 48.9386 55.1232C56.9535 48.3116 53.4596 31.0693 41.1349 16.6114C28.8102 2.15359 12.3217 -4.04488 4.30681 2.76674Z" fill="#0804FF"/>
<path d="M136.905 55.8768C128.89 49.0652 132.384 31.8229 144.709 17.365C157.033 2.90718 173.522 -3.29129 181.537 3.52033C189.552 10.332 186.058 27.5743 173.733 42.0321C161.408 56.4899 144.92 62.6884 136.905 55.8768Z" fill="#0804FF"/>
<path d="M4.3068 121.881C-3.70805 115.069 -0.214197 97.8272 12.1105 83.3694C24.4353 68.9115 40.9238 62.7131 48.9386 69.5247C56.9535 76.3363 53.4596 93.5786 41.1349 108.036C28.8101 122.494 12.3216 128.693 4.3068 121.881Z" fill="#0804FF"/>
<path d="M269.502 55.8768C261.487 49.0652 264.981 31.8229 277.306 17.365C289.631 2.90718 306.119 -3.29129 314.134 3.52033C322.149 10.332 318.655 27.5743 306.33 42.0321C294.006 56.4899 277.517 62.6884 269.502 55.8768Z" fill="#0804FF"/>
<path d="M269.502 121.881C261.487 115.069 264.981 97.8272 277.306 83.3694C289.631 68.9115 306.119 62.7131 314.134 69.5247C322.149 76.3363 318.655 93.5786 306.33 108.036C294.006 122.494 277.517 128.693 269.502 121.881Z" fill="#0804FF"/>
<path d="M335.801 69.9954C327.786 76.807 331.28 94.0493 343.605 108.507C355.929 122.965 372.418 129.163 380.433 122.352C388.448 115.54 384.954 98.2979 372.629 83.8401C360.304 69.3822 343.816 63.1838 335.801 69.9954Z" fill="#0804FF"/>
<path d="M335.801 2.76674C327.786 9.57836 331.28 26.8207 343.605 41.2785C355.929 55.7363 372.418 61.9348 380.433 55.1232C388.448 48.3116 384.954 31.0693 372.629 16.6114C360.304 2.15359 343.816 -4.04488 335.801 2.76674Z" fill="#0804FF"/>
<path d="M249.865 54.0069C242.423 61.4379 225.49 56.5788 212.044 43.1537C198.599 29.7286 193.732 12.8213 201.174 5.39024C208.617 -2.04082 225.55 2.81832 238.995 16.2434C252.441 29.6686 257.307 46.5758 249.865 54.0069Z" fill="#0804FF"/>
<path d="M203.204 121.881C195.189 115.069 198.683 97.8272 211.008 83.3694C223.332 68.9115 239.821 62.7131 247.836 69.5247C255.851 76.3363 252.357 93.5786 240.032 108.036C227.707 122.494 211.219 128.693 203.204 121.881Z" fill="#0804FF"/>
</svg>
