<svg width="170" height="43" viewBox="0 0 170 43" fill="none" xmlns="http://www.w3.org/2000/svg">
<path d="M42.1196 16.6723H34.1673L31.9188 25.0632H39.871L38.2257 31.3702H30.2735L27.4216 42.2291H20.1824L23.089 31.3702H15.1368L12.285 42.2291H5.10051L7.95235 31.3702H0.00010434L1.6454 25.0632H9.59764L11.7914 16.6723H3.83912L5.53925 10.3653H13.4915L16.2337 -3.50292e-05H23.4181L20.6759 10.3653H28.5733L31.3155 -3.50292e-05H38.5548L35.8126 10.3653H43.7649L42.1196 16.6723ZM24.7343 25.0632L26.928 16.6723H19.0306L16.8369 25.0632H24.7343ZM68.2356 3.83898C76.462 3.83898 81.8915 8.66517 81.8915 16.7271C81.8915 24.789 76.462 29.8346 68.2356 29.8346H59.9543V42.2291H52.1117V3.83898H68.2356ZM67.9065 22.3759C71.9649 22.3759 73.9393 20.1822 73.9393 16.8368C73.9393 13.4365 71.9649 11.2976 67.9065 11.2976H59.9543V22.3759H67.9065ZM106.851 42.8872C95.3889 42.8872 86.9979 34.3317 86.9979 23.0341C86.9979 11.7364 95.3889 3.18086 106.851 3.18086C116.01 3.18086 123.139 8.8297 125.388 17.0013H116.997C115.187 13.0526 111.513 10.6395 106.796 10.6395C99.7215 10.6395 94.8953 15.8496 94.8953 23.0341C94.8953 30.2185 99.7215 35.4286 106.796 35.4286C111.513 35.4286 115.187 33.0155 116.997 29.0668H125.388C123.139 37.2384 116.01 42.8872 106.851 42.8872ZM149.962 3.18086C161.26 3.18086 169.98 11.7364 169.98 23.0341C169.98 34.3317 161.26 42.8872 149.962 42.8872C138.665 42.8872 130 34.3317 130 23.0341C130 11.7364 138.665 3.18086 149.962 3.18086ZM149.962 10.6395C143.052 10.6395 137.897 15.8496 137.897 23.0341C137.897 30.2185 143.052 35.4286 149.962 35.4286C156.873 35.4286 162.028 30.2185 162.028 23.0341C162.028 15.8496 156.873 10.6395 149.962 10.6395Z" fill="black"/>
</svg>
