<svg width="481" height="241" viewBox="0 0 481 241" fill="none" xmlns="http://www.w3.org/2000/svg">
<rect width="480.664" height="240.853" fill="white"/>
<path d="M119.611 110.095C111.596 103.283 115.09 86.0409 127.414 71.583C139.739 57.1252 156.227 50.9267 164.242 57.7384C172.257 64.55 168.763 81.7923 156.439 96.2501C144.114 110.708 127.625 116.906 119.611 110.095Z" fill="#0804FF"/>
<path d="M183.88 125.613C191.322 118.181 208.255 123.041 221.701 136.466C235.146 149.891 240.013 166.798 232.571 174.229C225.128 181.66 208.195 176.801 194.75 163.376C181.304 149.951 176.438 133.044 183.88 125.613Z" fill="#0804FF"/>
<path d="M119.611 124.213C111.596 131.025 115.09 148.267 127.414 162.725C139.739 177.183 156.227 183.381 164.242 176.57C172.257 169.758 168.763 152.516 156.439 138.058C144.114 123.6 127.625 117.402 119.611 124.213Z" fill="#0804FF"/>
<path d="M53.3114 56.9848C45.2966 63.7964 48.7904 81.0387 61.1152 95.4965C73.4399 109.954 89.9284 116.153 97.9433 109.341C105.958 102.53 102.464 85.2873 90.1395 70.8294C77.8148 56.3716 61.3263 50.1731 53.3114 56.9848Z" fill="#0804FF"/>
<path d="M185.91 110.095C177.895 103.283 181.389 86.0409 193.713 71.583C206.038 57.1252 222.527 50.9267 230.541 57.7384C238.556 64.55 235.062 81.7923 222.738 96.2501C210.413 110.708 193.924 116.906 185.91 110.095Z" fill="#0804FF"/>
<path d="M53.3114 176.099C45.2966 169.288 48.7904 152.045 61.1152 137.587C73.4399 123.13 89.9284 116.931 97.9433 123.743C105.958 130.554 102.464 147.797 90.1395 162.254C77.8148 176.712 61.3263 182.911 53.3114 176.099Z" fill="#0804FF"/>
<path d="M318.507 110.095C310.492 103.283 313.986 86.0409 326.311 71.583C338.635 57.1252 355.124 50.9267 363.139 57.7384C371.154 64.55 367.66 81.7923 355.335 96.2501C343.01 110.708 326.522 116.906 318.507 110.095Z" fill="#0804FF"/>
<path d="M318.507 176.099C310.492 169.288 313.986 152.045 326.311 137.587C338.635 123.13 355.124 116.931 363.139 123.743C371.154 130.554 367.66 147.797 355.335 162.254C343.01 176.712 326.522 182.911 318.507 176.099Z" fill="#0804FF"/>
<path d="M384.806 124.213C376.791 131.025 380.285 148.267 392.609 162.725C404.934 177.183 421.423 183.381 429.437 176.57C437.452 169.758 433.958 152.516 421.634 138.058C409.309 123.6 392.82 117.402 384.806 124.213Z" fill="#0804FF"/>
<path d="M384.806 56.9848C376.791 63.7964 380.285 81.0387 392.609 95.4965C404.934 109.954 421.423 116.153 429.437 109.341C437.452 102.53 433.958 85.2873 421.634 70.8294C409.309 56.3716 392.82 50.1731 384.806 56.9848Z" fill="#0804FF"/>
<path d="M298.87 108.225C291.427 115.656 274.494 110.797 261.049 97.3717C247.603 83.9466 242.737 67.0393 250.179 59.6083C257.621 52.1772 274.554 57.0363 288 70.4615C301.445 83.8866 306.312 100.794 298.87 108.225Z" fill="#0804FF"/>
<path d="M252.209 176.099C244.194 169.288 247.688 152.045 260.012 137.587C272.337 123.13 288.826 116.931 296.84 123.743C304.855 130.554 301.361 147.797 289.037 162.254C276.712 176.712 260.223 182.911 252.209 176.099Z" fill="#0804FF"/>
</svg>
