<svg width="240" height="241" viewBox="0 0 240 241" fill="none" xmlns="http://www.w3.org/2000/svg">
<rect width="239.811" height="240.853" fill="white"/>
<path d="M126.221 64.5808L125.654 66.7312L119.76 89.0623H134.826L140.951 65.8562L141.287 64.5808H161.889L161.322 66.7312L155.427 89.0623H174.159L173.6 91.2068L169.723 106.103L169.39 107.385H150.642L146.26 123.777H164.983L164.426 125.922L160.549 140.818L160.215 142.099H141.473L135.089 166.469L134.754 167.747H114.142L114.718 165.592L120.992 142.099H105.805L99.4207 166.469L99.0857 167.747H78.614L79.1765 165.599L85.3347 142.099H66.5994L67.157 139.955L71.0339 125.058L71.3679 123.777H90.1072L94.3826 107.385H75.6267L76.2068 105.226L80.2136 90.3308L80.5544 89.0623H99.2869L105.412 65.8562L105.749 64.5808H126.221ZM110.707 123.777H125.775L130.052 107.385H114.982L110.707 123.777Z" fill="black" stroke="black" stroke-width="3.42622"/>
</svg>
