<svg width="720" height="241" viewBox="0 0 720 241" fill="none" xmlns="http://www.w3.org/2000/svg">
<rect width="719.432" height="240.853" fill="white"/>
<path d="M200.4 188.894C212.35 202.932 242.597 196.813 267.96 175.225C293.323 153.637 304.197 124.755 292.247 110.717C280.298 96.6778 250.05 102.798 224.688 124.386C199.325 145.974 188.451 174.855 200.4 188.894Z" fill="#0804FF"/>
<path d="M276.052 188.894C288.002 202.932 318.249 196.813 343.612 175.225C368.975 153.637 379.849 124.755 367.899 110.717C355.95 96.6778 325.702 102.798 300.339 124.386C274.977 145.974 264.103 174.855 276.052 188.894Z" fill="#0804FF"/>
<path d="M124.759 188.894C136.708 202.932 166.956 196.813 192.319 175.225C217.682 153.637 228.555 124.755 216.606 110.717C204.657 96.6778 174.409 102.798 149.046 124.386C123.683 145.974 112.81 174.855 124.759 188.894Z" fill="#0804FF"/>
<path d="M427.357 188.894C439.306 202.932 469.553 196.813 494.916 175.225C520.279 153.637 531.153 124.755 519.203 110.717C507.254 96.6778 477.007 102.798 451.644 124.386C426.281 145.974 415.407 174.855 427.357 188.894Z" fill="#0804FF"/>
<path d="M503.008 188.894C514.957 202.932 545.205 196.813 570.568 175.225C595.931 153.637 606.804 124.755 594.855 110.717C582.906 96.6778 552.658 102.798 527.295 124.386C501.932 145.974 491.059 174.855 503.008 188.894Z" fill="#0804FF"/>
<path d="M351.705 188.894C363.654 202.932 393.902 196.813 419.264 175.225C444.627 153.637 455.501 124.755 443.552 110.717C431.602 96.6778 401.355 102.798 375.992 124.386C350.629 145.974 339.755 174.855 351.705 188.894Z" fill="#0804FF"/>
<path d="M200.4 130.555C212.35 144.594 242.597 138.474 267.96 116.886C293.323 95.298 304.197 66.4168 292.247 52.378C280.298 38.3392 250.05 44.459 224.688 66.047C199.325 87.635 188.451 116.516 200.4 130.555Z" fill="#0804FF"/>
<path d="M276.052 130.555C288.002 144.594 318.249 138.474 343.612 116.886C368.975 95.298 379.849 66.4168 367.899 52.378C355.95 38.3392 325.702 44.459 300.339 66.047C274.977 87.635 264.103 116.516 276.052 130.555Z" fill="#0804FF"/>
<path d="M124.759 130.555C136.708 144.594 166.956 138.474 192.319 116.886C217.682 95.298 228.555 66.4168 216.606 52.378C204.657 38.3392 174.409 44.459 149.046 66.047C123.683 87.635 112.81 116.516 124.759 130.555Z" fill="#0804FF"/>
<path d="M427.357 130.555C439.306 144.594 469.553 138.474 494.916 116.886C520.279 95.298 531.153 66.4168 519.203 52.378C507.254 38.3392 477.007 44.459 451.644 66.047C426.281 87.635 415.407 116.516 427.357 130.555Z" fill="#0804FF"/>
<path d="M503.008 130.555C514.957 144.594 545.205 138.474 570.568 116.886C595.931 95.298 606.804 66.4168 594.855 52.378C582.906 38.3392 552.658 44.459 527.295 66.047C501.932 87.635 491.059 116.516 503.008 130.555Z" fill="#0804FF"/>
<path d="M351.705 130.555C363.654 144.594 393.902 138.474 419.264 116.886C444.627 95.298 455.501 66.4168 443.552 52.378C431.602 38.3392 401.355 44.459 375.992 66.047C350.629 87.635 339.755 116.516 351.705 130.555Z" fill="#0804FF"/>
</svg>
