<svg width="599" height="248" viewBox="0 0 599 248" fill="none" xmlns="http://www.w3.org/2000/svg">
<path d="M75.4003 191.593C141.216 249.2 219.153 264.943 250.161 227.481C257.701 218.372 261.755 206.973 262.627 194.106C260.972 203.001 257.461 210.957 251.958 217.603C223.054 252.511 150.405 237.84 89.0557 184.161C27.706 130.482 1.65486 59.4627 30.559 24.5548C49.5954 1.56425 87.6065 0.0787315 128.868 17.0789C80.548 -6.0662 34.7127 -6.35258 12.6452 20.3079C-18.3631 57.77 9.58455 133.986 75.4003 191.593Z" fill="white"/>
<path d="M159.22 124.427C164.895 129.735 172.597 132.717 180.62 132.717V105.065L246.07 89.5452C241.876 74.0818 225.768 64.5567 210.093 68.2744L175.039 76.5893C169.088 77.6311 163.558 80.3258 159.22 84.3866C153.545 89.6949 150.356 96.8996 150.356 104.41C150.356 111.92 153.545 119.118 159.22 124.427Z" fill="white"/>
<path d="M235.291 113.012C229.61 107.703 221.914 104.716 213.885 104.716V132.262L176.916 141.032C170.256 141.799 164.016 144.619 159.22 149.104C153.545 154.412 150.356 161.617 150.356 169.127C150.356 176.637 153.545 183.835 159.22 189.144C164.895 194.452 172.597 197.434 180.62 197.434V169.963L218.135 161.068C224.588 160.213 230.621 157.425 235.291 153.058C240.966 147.75 244.155 140.552 244.155 133.041C244.155 125.531 240.966 118.333 235.291 113.024V113.012Z" fill="white"/>
<path fill-rule="evenodd" clip-rule="evenodd" d="M132 0.435303C133.46 35.3771 162.786 63.339 197.976 63.3511C233.184 63.3632 262.54 35.3952 264 0.435303H132Z" fill="white"/>
<path d="M458.233 154.406C463.351 154.406 466.161 156.969 466.161 161.758C466.161 166.513 463.15 169.144 458.133 169.144H448.232V145.537H453.015V154.406H458.233ZM468.937 145.537H473.72V169.144H468.937V145.537ZM457.966 164.557C460.207 164.557 461.344 163.579 461.344 161.691C461.344 159.802 460.307 158.925 458.066 158.925H453.015V164.557H457.966Z" fill="white"/>
<path d="M441.479 164.291H444.776V173.436H440.062V168.814H424.435V173.436H419.72V164.291H422.984C423.511 163.759 423.841 162.828 424.105 161.199L426.577 145.537H441.479V164.291ZM428.72 161.664C428.556 162.728 428.325 163.593 428.094 164.291H436.765V150.06H430.567L428.72 161.664Z" fill="white"/>
<path d="M406.158 145.537H416.264V169.144H411.463V161.016H408.475L402.7 169.144H396.824L403.136 160.544C400.014 159.566 398.133 157.037 398.133 153.26C398.133 148.505 401.088 145.537 406.158 145.537ZM406.661 156.632H411.463V150.124H406.661C404.177 150.124 402.968 151.405 402.968 153.395C402.968 155.384 404.177 156.632 406.661 156.632Z" fill="white"/>
<path d="M386.776 145.537C391.788 145.537 395.096 148.505 395.096 153.462C395.096 158.42 391.788 161.522 386.776 161.522H381.73V169.144H376.952V145.537H386.776ZM386.575 156.936C389.048 156.936 390.251 155.587 390.251 153.53C390.251 151.439 389.048 150.124 386.575 150.124H381.73V156.936H386.575Z" fill="white"/>
<path d="M373.928 145.537V150.124H367.056V169.144H362.19V150.124H355.352V145.537H373.928Z" fill="white"/>
<path d="M341.079 145.108C347.916 145.108 353.192 150.287 353.192 157.126C353.192 163.965 347.916 169.144 341.079 169.144C334.243 169.144 329 163.965 329 157.126C329 150.287 334.243 145.108 341.079 145.108ZM341.079 149.623C336.898 149.623 333.779 152.777 333.779 157.126C333.779 161.475 336.898 164.629 341.079 164.629C345.261 164.629 348.38 161.475 348.38 157.126C348.38 152.777 345.261 149.623 341.079 149.623Z" fill="white"/>
<path d="M599 81.2843H588.18V85.8664H598.107V90.2859H588.18V95.193H599V99.6125H583.448V76.8648H599V81.2843Z" fill="white"/>
<path d="M573.137 76.8648H578.696V99.6125H573.849V90.091L574.289 83.6891L563.951 99.6125H558.392V76.8648H563.239V86.3863L562.799 92.7882L573.137 76.8648Z" fill="white"/>
<path d="M555.368 99.6125H549.42L540.68 88.9861V99.6125H535.928V76.8648H540.68V86.9388L548.954 76.8648H554.836L545.698 87.8812L555.368 99.6125Z" fill="white"/>
<path d="M520.776 100.042C513.811 100.042 508.712 94.9553 508.712 88.2386C508.712 81.522 513.811 76.4355 520.776 76.4355C526.341 76.4355 530.674 79.7939 532.04 84.6521H526.941C525.841 82.3045 523.609 80.8699 520.743 80.8699C516.444 80.8699 513.511 83.9674 513.511 88.2386C513.511 92.5099 516.444 95.6074 520.743 95.6074C523.609 95.6074 525.841 94.1728 526.941 91.8252H532.04C530.674 96.6834 526.341 100.042 520.776 100.042Z" fill="white"/>
<path d="M506.12 81.2843H494.999V85.8664H505.202V90.2859H494.999V95.193H506.12V99.6125H490.136V76.8648H506.12V81.2843Z" fill="white"/>
<path d="M480.588 76.8648H485.384V99.6125H480.588V91.5858C479.381 92.1058 477.771 92.5282 475.524 92.5282C470.594 92.5282 467.24 90.156 467.24 84.729V76.8648H472.069V84.144C472.069 87.1338 473.713 88.1087 476.53 88.1087C478.14 88.1087 479.649 87.8487 480.588 87.2637V76.8648Z" fill="white"/>
<path d="M458.385 76.8648H463.352V99.6125H458.385V90.1885H447.583V99.6125H442.616V76.8648H447.583V85.7689H458.385V76.8648Z" fill="white"/>
<path d="M439.592 81.2843H428.471V85.8664H438.674V90.2859H428.471V95.193H439.592V99.6125H423.608V76.8648H439.592V81.2843Z" fill="white"/>
<path d="M416.798 95.3302H420.152V104.334H415.356V99.7829H399.46V104.334H394.664V95.3302H397.984C398.521 94.8064 398.856 93.8896 399.124 92.2854L401.64 76.8648H416.798V95.3302ZM403.82 92.7437C403.652 93.7914 403.417 94.6427 403.182 95.3302H412.003V81.3174H405.698L403.82 92.7437Z" fill="white"/>
<path d="M396.824 76.8648L384.78 99.6125H379.472L383.652 91.7483L375.656 76.8648H380.965L386.306 86.7113L391.515 76.8648H396.824Z" fill="white"/>
<path d="M372.632 76.8648V81.2843H366.079V99.6125H361.44V81.2843H354.92V76.8648H372.632Z" fill="white"/>
<path d="M341.064 100.042C334.099 100.042 329 94.9553 329 88.2386C329 81.522 334.099 76.4355 341.064 76.4355C346.629 76.4355 350.962 79.7939 352.328 84.6521H347.229C346.129 82.3045 343.897 80.8699 341.031 80.8699C336.732 80.8699 333.799 83.9674 333.799 88.2386C333.799 92.5099 336.732 95.6074 341.031 95.6074C343.897 95.6074 346.129 94.1728 347.229 91.8252H352.328C350.962 96.6834 346.629 100.042 341.064 100.042Z" fill="white"/>
<path d="M591.763 115.628H580.996V120.274H590.874V124.755H580.996V129.729H591.763V134.21H576.288V111.148H591.763V115.628Z" fill="white"/>
<path d="M566.041 111.148H571.441V134.21H566.733V124.557L567.161 118.066L557.118 134.21H551.718V111.148H556.427V120.801L555.999 127.291L566.041 111.148Z" fill="white"/>
<path d="M548.444 134.21H542.55L533.891 123.437V134.21H529.182V111.148H533.891V121.361L542.089 111.148H547.917L538.862 122.316L548.444 134.21Z" fill="white"/>
<path d="M514.297 134.606C507.415 134.606 502.378 129.466 502.378 122.679C502.378 115.892 507.415 110.752 514.297 110.752C519.796 110.752 524.076 114.146 525.426 119.055H520.388C519.302 116.683 517.096 115.233 514.264 115.233C510.017 115.233 507.119 118.363 507.119 122.679C507.119 126.995 510.017 130.125 514.264 130.125C517.096 130.125 519.302 128.675 520.388 126.303H525.426C524.076 131.212 519.796 134.606 514.297 134.606Z" fill="white"/>
<path d="M493.52 111.148H498.228V134.21H493.52V124.656H483.28V134.21H478.572V111.148H483.28V120.175H493.52V111.148Z" fill="white"/>
<path d="M468.325 111.148H473.725V134.21H469.016V124.557L469.444 118.066L459.402 134.21H454.002V111.148H458.711V120.801L458.283 127.291L468.325 111.148Z" fill="white"/>
<path d="M447.24 129.729H450.73V138.79H446.022V134.21H428.604V111.148H433.313V129.729H442.532V111.148H447.24V129.729Z" fill="white"/>
<path d="M418.357 111.148H423.757V134.21H419.049V124.557L419.477 118.066L409.435 134.21H404.035V111.148H408.743V120.801L408.315 127.291L418.357 111.148Z" fill="white"/>
<path d="M397.469 129.729H400.762V138.79H396.053V134.21H380.447V138.79H375.738V129.729H378.998C379.525 129.202 379.854 128.28 380.117 126.665L382.587 111.148H397.469V129.729ZM384.727 127.127C384.562 128.181 384.332 129.038 384.101 129.729H392.761V115.628H386.571L384.727 127.127Z" fill="white"/>
<path d="M372.922 115.628H362.156V120.274H372.034V124.755H362.156V129.729H372.922V134.21H357.447V111.148H372.922V115.628Z" fill="white"/>
<path d="M347.043 111.148H352.476V134.21H347.768V117.671L341.347 127.39H340.919L334.531 117.671V134.21H329.823V111.148H335.223L341.15 120.01L347.043 111.148Z" fill="white"/>
</svg>
