<svg width="607" height="256" viewBox="0 0 607 256" fill="none" xmlns="http://www.w3.org/2000/svg">
<g filter="url(#filter0_d_7_1229)">
<path d="M79.4003 191.593C145.216 249.2 223.153 264.943 254.161 227.481C261.701 218.372 265.755 206.973 266.627 194.106C264.972 203.001 261.461 210.957 255.958 217.603C227.054 252.511 154.405 237.84 93.0557 184.161C31.706 130.482 5.65486 59.4627 34.559 24.5548C53.5954 1.56425 91.6065 0.0787315 132.868 17.0789C84.548 -6.0662 38.7127 -6.35258 16.6452 20.3079C-14.3631 57.77 13.5845 133.986 79.4003 191.593Z" fill="white"/>
<path fill-rule="evenodd" clip-rule="evenodd" d="M164.442 0.435547C157.334 0.435547 150.972 4.84739 148.476 11.507L137.809 39.9696C136.613 43.1626 136 46.5447 136 49.9547V147.661H269V49.9547C269 46.5447 268.387 43.1626 267.191 39.9696L256.524 11.507C254.028 4.84739 247.666 0.435547 240.558 0.435547H164.442ZM202.5 32.2855C208.464 32.2855 213.299 27.4474 213.299 21.4793C213.299 15.5112 208.464 10.673 202.5 10.673C196.536 10.673 191.701 15.5112 191.701 21.4793C191.701 27.4474 196.536 32.2855 202.5 32.2855ZM162.145 125.029C162.145 129.741 158.328 133.561 153.62 133.561C148.911 133.561 145.094 129.741 145.094 125.029C145.094 120.318 148.911 116.498 153.62 116.498C158.328 116.498 162.145 120.318 162.145 125.029ZM258.769 125.029C258.769 129.741 254.952 133.561 250.244 133.561C245.535 133.561 241.718 129.741 241.718 125.029C241.718 120.318 245.535 116.498 250.244 116.498C254.952 116.498 258.769 120.318 258.769 125.029ZM158.735 48.2105C151.201 48.2105 145.094 54.3219 145.094 61.8605V73.2355C145.094 80.7742 151.201 86.8856 158.735 86.8856H245.128C252.662 86.8856 258.769 80.7742 258.769 73.2355V61.8605C258.769 54.3219 252.662 48.2105 245.128 48.2105H158.735Z" fill="white"/>
<path d="M136 155.623H269V171.771C269 176.922 265.54 181.431 260.567 182.76L224.067 192.518C222.809 192.854 221.545 193.152 220.264 193.386C216.57 194.06 208.313 195.436 202.5 195.436C196.687 195.436 188.43 194.06 184.736 193.386C183.455 193.152 182.191 192.854 180.933 192.518L144.433 182.76C139.46 181.431 136 176.922 136 171.771V155.623Z" fill="white"/>
<path d="M603 82.5791H592.18V87.1582H602.107V91.575H592.18V96.4789H603V100.896H587.448V78.1623H603V82.5791Z" fill="white"/>
<path d="M577.137 78.1623H582.696V100.896H577.849V91.3801L578.289 84.9823L567.951 100.896H562.392V78.1623H567.239V87.6779L566.799 94.0757L577.137 78.1623Z" fill="white"/>
<path d="M559.368 100.896H553.42L544.68 90.276V100.896H539.928V78.1623H544.68V88.23L552.954 78.1623H558.836L549.698 89.1718L559.368 100.896Z" fill="white"/>
<path d="M524.776 101.325C517.811 101.325 512.712 96.2414 512.712 89.529C512.712 82.8166 517.811 77.7334 524.776 77.7334C530.341 77.7334 534.674 81.0896 536.04 85.9447H530.941C529.841 83.5986 527.609 82.1649 524.743 82.1649C520.444 82.1649 517.511 85.2604 517.511 89.529C517.511 93.7976 520.444 96.8931 524.743 96.8931C527.609 96.8931 529.841 95.4594 530.941 93.1133H536.04C534.674 97.9684 530.341 101.325 524.776 101.325Z" fill="white"/>
<path d="M510.12 82.5791H498.999V87.1582H509.202V91.575H498.999V96.4789H510.12V100.896H494.136V78.1623H510.12V82.5791Z" fill="white"/>
<path d="M484.588 78.1623H489.384V100.896H484.588V92.8741C483.381 93.3937 481.771 93.8159 479.524 93.8159C474.594 93.8159 471.24 91.4451 471.24 86.0216V78.1623H476.069V85.437C476.069 88.4248 477.713 89.3991 480.53 89.3991C482.14 89.3991 483.649 89.1393 484.588 88.5547V78.1623Z" fill="white"/>
<path d="M462.385 78.1623H467.352V100.896H462.385V91.4776H451.583V100.896H446.616V78.1623H451.583V87.0608H462.385V78.1623Z" fill="white"/>
<path d="M443.592 82.5791H432.471V87.1582H442.674V91.575H432.471V96.4789H443.592V100.896H427.608V78.1623H443.592V82.5791Z" fill="white"/>
<path d="M420.798 96.6161H424.152V105.614H419.356V101.066H403.46V105.614H398.664V96.6161H401.984C402.521 96.0926 402.856 95.1764 403.124 93.5732L405.64 78.1623H420.798V96.6161ZM407.82 94.0312C407.652 95.0783 407.417 95.929 407.182 96.6161H416.003V82.6122H409.698L407.82 94.0312Z" fill="white"/>
<path d="M400.824 78.1623L388.78 100.896H383.472L387.652 93.0364L379.656 78.1623H384.965L390.306 88.0026L395.515 78.1623H400.824Z" fill="white"/>
<path d="M376.632 78.1623V82.5791H370.079V100.896H365.44V82.5791H358.92V78.1623H376.632Z" fill="white"/>
<path d="M345.064 101.325C338.099 101.325 333 96.2414 333 89.529C333 82.8166 338.099 77.7334 345.064 77.7334C350.629 77.7334 354.962 81.0896 356.328 85.9447H351.229C350.129 83.5986 347.897 82.1649 345.031 82.1649C340.732 82.1649 337.799 85.2604 337.799 89.529C337.799 93.7976 340.732 96.8931 345.031 96.8931C347.897 96.8931 350.129 95.4594 351.229 93.1133H356.328C354.962 97.9684 350.629 101.325 345.064 101.325Z" fill="white"/>
<path d="M462.233 121.385C467.351 121.385 470.161 123.946 470.161 128.732C470.161 133.484 467.15 136.113 462.133 136.113H452.232V112.521H457.015V121.385H462.233ZM472.937 112.521H477.72V136.113H472.937V112.521ZM461.966 131.529C464.207 131.529 465.344 130.552 465.344 128.665C465.344 126.777 464.307 125.901 462.066 125.901H457.015V131.529H461.966Z" fill="white"/>
<path d="M445.479 131.264H448.776V140.402H444.062V135.783H428.435V140.402H423.72V131.264H426.984C427.511 130.732 427.841 129.801 428.105 128.173L430.577 112.521H445.479V131.264ZM432.72 128.638C432.556 129.702 432.325 130.566 432.094 131.264H440.765V117.041H434.567L432.72 128.638Z" fill="white"/>
<path d="M410.158 112.521H420.264V136.113H415.463V127.991H412.475L406.7 136.113H400.824L407.136 127.519C404.014 126.541 402.133 124.014 402.133 120.239C402.133 115.487 405.088 112.521 410.158 112.521ZM410.661 123.609H415.463V117.105H410.661C408.177 117.105 406.968 118.386 406.968 120.374C406.968 122.362 408.177 123.609 410.661 123.609Z" fill="white"/>
<path d="M390.776 112.521C395.788 112.521 399.096 115.487 399.096 120.441C399.096 125.396 395.788 128.496 390.776 128.496H385.73V136.113H380.952V112.521H390.776ZM390.575 123.913C393.048 123.913 394.251 122.565 394.251 120.509C394.251 118.419 393.048 117.105 390.575 117.105H385.73V123.913H390.575Z" fill="white"/>
<path d="M377.928 112.521V117.105H371.056V136.113H366.19V117.105H359.352V112.521H377.928Z" fill="white"/>
<path d="M345.079 112.093C351.916 112.093 357.192 117.268 357.192 124.103C357.192 130.937 351.916 136.113 345.079 136.113C338.243 136.113 333 130.937 333 124.103C333 117.268 338.243 112.093 345.079 112.093ZM345.079 116.605C340.898 116.605 337.779 119.756 337.779 124.103C337.779 128.449 340.898 131.601 345.079 131.601C349.261 131.601 352.38 128.449 352.38 124.103C352.38 119.756 349.261 116.605 345.079 116.605Z" fill="white"/>
<path d="M596.722 158.67C599.227 159.505 600.429 161.776 600.429 164.515C600.429 168.79 597.357 171.262 592.547 171.262H582.226V147.881H592.48C596.789 147.881 599.628 149.952 599.628 153.96C599.628 156.298 598.626 157.701 596.722 158.67ZM594.818 154.762C594.818 153.058 593.849 152.424 591.845 152.424H587.002V157.133H591.979C593.95 157.133 594.818 156.332 594.818 154.762ZM592.447 166.719C594.885 166.719 595.586 165.684 595.586 164.114C595.586 162.411 594.885 161.509 592.413 161.509H587.002V166.719H592.447Z" fill="white"/>
<path d="M565.983 147.481C572.863 147.481 578.174 152.691 578.174 159.572C578.174 166.452 572.863 171.663 565.983 171.663C559.102 171.663 553.825 166.452 553.825 159.572C553.825 152.691 559.102 147.481 565.983 147.481ZM565.983 152.023C561.774 152.023 558.634 155.196 558.634 159.572C558.634 163.947 561.774 167.12 565.983 167.12C570.191 167.12 573.331 163.947 573.331 159.572C573.331 155.196 570.191 152.023 565.983 152.023Z" fill="white"/>
<path d="M553.556 171.262H547.577L538.793 160.34V171.262H534.016V147.881H538.793V158.236L547.11 147.881H553.021L543.836 159.204L553.556 171.262Z" fill="white"/>
<path d="M523.622 147.881H529.099V171.262H524.323V161.475L524.757 154.895L514.57 171.262H509.092V147.881H513.869V157.668L513.434 164.248L523.622 147.881Z" fill="white"/>
<path d="M499.405 147.881H504.181V171.262H499.405V161.576H489.017V171.262H484.241V147.881H489.017V157.033H499.405V147.881Z" fill="white"/>
<path d="M477.414 166.719H480.754V175.905H475.978V171.262H460.145V175.905H455.369V166.719H458.676C459.21 166.185 459.544 165.25 459.811 163.613L462.316 147.881H477.414V166.719ZM464.488 164.081C464.321 165.15 464.087 166.018 463.853 166.719H472.637V152.424H466.358L464.488 164.081Z" fill="white"/>
<path d="M441.708 147.481C448.588 147.481 453.899 152.691 453.899 159.572C453.899 166.452 448.588 171.663 441.708 171.663C434.827 171.663 429.55 166.452 429.55 159.572C429.55 152.691 434.827 147.481 441.708 147.481ZM441.708 152.023C437.499 152.023 434.359 155.196 434.359 159.572C434.359 163.947 437.499 167.12 441.708 167.12C445.916 167.12 449.056 163.947 449.056 159.572C449.056 155.196 445.916 152.023 441.708 152.023Z" fill="white"/>
<path d="M423.03 158.67C425.535 159.505 426.738 161.776 426.738 164.515C426.738 168.79 423.665 171.262 418.855 171.262H408.534V147.881H418.789C423.097 147.881 425.936 149.952 425.936 153.96C425.936 156.298 424.934 157.701 423.03 158.67ZM421.127 154.762C421.127 153.058 420.158 152.424 418.154 152.424H413.311V157.133H418.287C420.258 157.133 421.127 156.332 421.127 154.762ZM418.755 166.719C421.193 166.719 421.895 165.684 421.895 164.114C421.895 162.411 421.193 161.509 418.722 161.509H413.311V166.719H418.755Z" fill="white"/>
<path d="M392.291 147.481C399.172 147.481 404.483 152.691 404.483 159.572C404.483 166.452 399.172 171.663 392.291 171.663C385.411 171.663 380.133 166.452 380.133 159.572C380.133 152.691 385.411 147.481 392.291 147.481ZM392.291 152.023C388.083 152.023 384.943 155.196 384.943 159.572C384.943 163.947 388.083 167.12 392.291 167.12C396.5 167.12 399.639 163.947 399.639 159.572C399.639 155.196 396.5 152.023 392.291 152.023Z" fill="white"/>
<path d="M368.84 147.881C373.85 147.881 377.157 150.821 377.157 155.731C377.157 160.64 373.85 163.713 368.84 163.713H363.797V171.262H359.02V147.881H368.84ZM368.64 159.171C371.111 159.171 372.314 157.835 372.314 155.797C372.314 153.726 371.111 152.424 368.64 152.424H363.797V159.171H368.64Z" fill="white"/>
<path d="M353.942 147.881V171.262H349.166V152.424H338.778V171.262H334.002V147.881H353.942Z" fill="white"/>
</g>
<defs>
<filter id="filter0_d_7_1229" x="0" y="0" width="607" height="255.789" filterUnits="userSpaceOnUse" color-interpolation-filters="sRGB">
<feFlood flood-opacity="0" result="BackgroundImageFix"/>
<feColorMatrix in="SourceAlpha" type="matrix" values="0 0 0 0 0 0 0 0 0 0 0 0 0 0 0 0 0 0 127 0" result="hardAlpha"/>
<feOffset dy="4"/>
<feGaussianBlur stdDeviation="2"/>
<feComposite in2="hardAlpha" operator="out"/>
<feColorMatrix type="matrix" values="0 0 0 0 0 0 0 0 0 0 0 0 0 0 0 0 0 0 0.25 0"/>
<feBlend mode="normal" in2="BackgroundImageFix" result="effect1_dropShadow_7_1229"/>
<feBlend mode="normal" in="SourceGraphic" in2="effect1_dropShadow_7_1229" result="shape"/>
</filter>
</defs>
</svg>
