<svg width="646" height="265" viewBox="0 0 646 265" fill="none" xmlns="http://www.w3.org/2000/svg">
<path d="M75.4003 207.925C141.216 265.532 219.153 281.275 250.161 243.813C257.701 234.704 261.755 223.305 262.627 210.438C260.972 219.333 257.461 227.288 251.958 233.935C223.054 268.842 150.405 254.172 89.0557 200.493C27.706 146.814 1.65486 75.7947 30.559 40.8868C49.5954 17.8962 87.6065 16.4107 128.868 33.4109C80.548 10.2658 34.7127 9.97939 12.6452 36.6399C-18.3631 74.102 9.58454 150.318 75.4003 207.925Z" fill="white"/>
<path d="M200.032 136.393C235.814 134.349 264.201 104.627 264.201 68.2565C264.201 50.8849 257.723 35.0334 247.063 22.9856H239.053C224.724 22.9856 212.54 13.8204 208.067 1.0534C204.182 0.365851 200.184 0 196.104 0C158.493 0 128 30.5549 128 68.2502C128 105.946 156.69 134.659 192.738 136.418C160.315 138.431 134.636 165.283 134.636 198.115V204H163.814C181.945 204 196.641 189.347 196.641 171.269V142.177C196.641 176.321 224.402 204 258.646 204V198.115C258.646 165.106 232.702 138.14 200.039 136.387L200.032 136.393ZM168.508 95.7648C168.508 80.5693 180.863 68.2565 196.097 68.2565C211.331 68.2565 223.687 80.5756 223.687 95.7648C223.687 110.954 211.331 123.273 196.097 123.273C180.863 123.273 168.508 110.954 168.508 95.7648Z" fill="white"/>
<path d="M457.821 162.934C462.922 162.934 465.723 165.471 465.723 170.21C465.723 174.916 462.722 177.52 457.721 177.52H447.852V154.157H452.62V162.934H457.821ZM468.491 154.157H473.259V177.52H468.491V154.157ZM457.554 172.98C459.788 172.98 460.922 172.013 460.922 170.144C460.922 168.275 459.888 167.407 457.654 167.407H452.62V172.98H457.554Z" fill="white"/>
<path d="M441.121 172.717H444.407V181.767H439.707V177.193H424.13V181.767H419.431V172.717H422.684C423.21 172.191 423.539 171.269 423.802 169.657L426.266 154.157H441.121V172.717ZM428.402 170.118C428.238 171.171 428.008 172.026 427.778 172.717H436.421V158.632H430.243L428.402 170.118Z" fill="white"/>
<path d="M405.912 154.157H415.986V177.52H411.2V169.476H408.221L402.465 177.52H396.608L402.9 169.009C399.787 168.041 397.913 165.538 397.913 161.8C397.913 157.094 400.858 154.157 405.912 154.157ZM406.414 165.137H411.2V158.696H406.414C403.937 158.696 402.732 159.964 402.732 161.933C402.732 163.902 403.937 165.137 406.414 165.137Z" fill="white"/>
<path d="M386.592 154.157C391.588 154.157 394.885 157.094 394.885 162C394.885 166.906 391.588 169.977 386.592 169.977H381.562V177.52H376.799V154.157H386.592ZM386.392 165.438C388.857 165.438 390.056 164.103 390.056 162.067C390.056 159.997 388.857 158.696 386.392 158.696H381.562V165.438H386.392Z" fill="white"/>
<path d="M373.785 154.157V158.696H366.934V177.52H362.085V158.696H355.268V154.157H373.785Z" fill="white"/>
<path d="M341.041 153.732C347.855 153.732 353.115 158.857 353.115 165.626C353.115 172.394 347.855 177.52 341.041 177.52C334.227 177.52 329 172.394 329 165.626C329 158.857 334.227 153.732 341.041 153.732ZM341.041 158.2C336.873 158.2 333.763 161.322 333.763 165.626C333.763 169.93 336.873 173.051 341.041 173.051C345.209 173.051 348.318 169.93 348.318 165.626C348.318 161.322 345.209 158.2 341.041 158.2Z" fill="white"/>
<path d="M598.139 90.5661H587.353V95.1009H597.249V99.4749H587.353V104.331H598.139V108.705H582.637V86.1921H598.139V90.5661Z" fill="white"/>
<path d="M572.359 86.1921H577.9V108.705H573.068V99.282L573.507 92.9461L563.202 108.705H557.661V86.1921H562.492V95.6155L562.053 101.951L572.359 86.1921Z" fill="white"/>
<path d="M554.646 108.705H548.717L540.005 98.1885V108.705H535.268V86.1921H540.005V96.1623L548.253 86.1921H554.116L545.007 97.095L554.646 108.705Z" fill="white"/>
<path d="M520.164 109.13C513.222 109.13 508.139 104.096 508.139 97.4487C508.139 90.8013 513.222 85.7673 520.164 85.7673C525.712 85.7673 530.031 89.091 531.393 93.8991H526.31C525.214 91.5758 522.988 90.1559 520.131 90.1559C515.846 90.1559 512.923 93.2215 512.923 97.4487C512.923 101.676 515.846 104.742 520.131 104.742C522.988 104.742 525.214 103.322 526.31 100.998H531.393C530.031 105.806 525.712 109.13 520.164 109.13Z" fill="white"/>
<path d="M505.555 90.5661H494.47V95.1009H504.64V99.4749H494.47V104.331H505.555V108.705H489.622V86.1921H505.555V90.5661Z" fill="white"/>
<path d="M480.105 86.1921H484.885V108.705H480.105V100.761C478.901 101.276 477.297 101.694 475.057 101.694C470.142 101.694 466.799 99.3463 466.799 93.9753V86.1921H471.613V93.3964C471.613 96.3552 473.251 97.3201 476.06 97.3201C477.664 97.3201 479.169 97.0628 480.105 96.4839V86.1921Z" fill="white"/>
<path d="M457.973 86.1921H462.924V108.705H457.973V99.3785H447.205V108.705H442.254V86.1921H447.205V95.0044H457.973V86.1921Z" fill="white"/>
<path d="M439.239 90.5661H428.154V95.1009H438.324V99.4749H428.154V104.331H439.239V108.705H423.306V86.1921H439.239V90.5661Z" fill="white"/>
<path d="M416.518 104.467H419.861V113.378H415.081V108.874H399.235V113.378H394.455V104.467H397.764C398.299 103.949 398.633 103.041 398.901 101.454L401.408 86.1921H416.518V104.467ZM403.581 101.907C403.414 102.944 403.18 103.787 402.946 104.467H411.738V90.5989H405.453L403.581 101.907Z" fill="white"/>
<path d="M396.608 86.1921L384.602 108.705H379.311L383.478 100.922L375.507 86.1921H380.799L386.124 95.9371L391.316 86.1921H396.608Z" fill="white"/>
<path d="M372.493 86.1921V90.5661H365.961V108.705H361.337V90.5661H354.837V86.1921H372.493Z" fill="white"/>
<path d="M341.025 109.13C334.083 109.13 329 104.096 329 97.4487C329 90.8013 334.083 85.7673 341.025 85.7673C346.573 85.7673 350.892 89.091 352.254 93.8991H347.171C346.075 91.5758 343.849 90.1559 340.992 90.1559C336.707 90.1559 333.784 93.2215 333.784 97.4487C333.784 101.676 336.707 104.742 340.992 104.742C343.849 104.742 346.075 103.322 347.171 100.998H352.254C350.892 105.806 346.573 109.13 341.025 109.13Z" fill="white"/>
<path d="M646 124.588H635.132V129.252H645.103V133.751H635.132V138.745H646V143.244H630.379V120.09H646V124.588Z" fill="white"/>
<path d="M620.035 120.09H625.486V143.244H620.733V133.552L621.165 127.036L611.028 143.244H605.577V120.09H610.33V129.781L609.898 136.298L620.035 120.09Z" fill="white"/>
<path d="M602.272 143.244H596.322L587.581 132.428V143.244H582.828V120.09H587.581V130.344L595.857 120.09H601.74L592.6 131.303L602.272 143.244Z" fill="white"/>
<path d="M567.803 143.641C560.856 143.641 555.771 138.481 555.771 131.667C555.771 124.853 560.856 119.693 567.803 119.693C573.353 119.693 577.674 123.1 579.036 128.028H573.951C572.855 125.647 570.628 124.191 567.769 124.191C563.482 124.191 560.557 127.334 560.557 131.667C560.557 136 563.482 139.142 567.769 139.142C570.628 139.142 572.855 137.687 573.951 135.305H579.036C577.674 140.234 573.353 143.641 567.803 143.641Z" fill="white"/>
<path d="M552.847 124.588H541.978V129.252H551.949V133.751H541.978V138.745H552.847V143.244H537.225V120.09H552.847V124.588Z" fill="white"/>
<path d="M527.45 120.09H532.203V143.244H527.45V135.074C526.254 135.603 524.658 136.033 522.432 136.033C517.546 136.033 514.222 133.618 514.222 128.094V120.09H519.008V127.499C519.008 130.542 520.637 131.535 523.429 131.535C525.024 131.535 526.52 131.27 527.45 130.675V120.09Z" fill="white"/>
<path d="M504.876 120.09H510.326V143.244H505.574V133.552L506.006 127.036L495.868 143.244H490.418V120.09H495.17V129.781L494.738 136.298L504.876 120.09Z" fill="white"/>
<path d="M487.131 120.09V124.588H477.16V143.244H472.408V120.09H487.131Z" fill="white"/>
<path d="M456.244 119.693C463.091 119.693 468.376 124.853 468.376 131.667C468.376 138.481 463.091 143.641 456.244 143.641C449.397 143.641 444.146 138.481 444.146 131.667C444.146 124.853 449.397 119.693 456.244 119.693ZM456.244 124.191C452.056 124.191 448.932 127.334 448.932 131.667C448.932 136 452.056 139.142 456.244 139.142C460.432 139.142 463.556 136 463.556 131.667C463.556 127.334 460.432 124.191 456.244 124.191Z" fill="white"/>
<path d="M441.918 120.09V124.588H431.947V143.244H427.194V120.09H441.918Z" fill="white"/>
<path d="M418.694 143.244L416.733 137.786H407.327L405.333 143.244H400.314L409.022 120.09H415.038L423.746 143.244H418.694ZM408.956 133.288H415.071L412.014 124.886L408.956 133.288Z" fill="white"/>
<path d="M394.597 138.745H397.92V147.842H393.167V143.244H377.413V147.842H372.66V138.745H375.951C376.483 138.216 376.815 137.29 377.081 135.669L379.574 120.09H394.597V138.745ZM381.734 136.132C381.568 137.191 381.335 138.051 381.102 138.745H389.844V124.588H383.595L381.734 136.132Z" fill="white"/>
<path d="M369.818 124.588H358.95V129.252H368.921V133.751H358.95V138.745H369.818V143.244H354.197V120.09H369.818V124.588Z" fill="white"/>
<path d="M349.144 120.09V143.244H344.391V124.588H334.055V143.244H329.302V120.09H349.144Z" fill="white"/>
</svg>
