<svg width="632" height="260" viewBox="0 0 632 260" fill="none" xmlns="http://www.w3.org/2000/svg">
<path d="M75.4003 203.189C141.216 260.796 219.153 276.539 250.161 239.077C257.701 229.968 261.755 218.568 262.627 205.702C260.972 214.597 257.461 222.552 251.958 229.198C223.054 264.106 150.405 249.436 89.0557 195.757C27.706 142.078 1.65486 71.0584 30.559 36.1505C49.5954 13.16 87.6065 11.6744 128.868 28.6746C80.548 5.5295 34.7127 5.24312 12.6452 31.9036C-18.3631 69.3657 9.58455 145.582 75.4003 203.189Z" fill="white"/>
<path d="M256.171 59.7673H222.744L226.707 52.2669C236.69 33.3696 229.449 9.97434 210.531 0L165.15 85.8614C163.58 88.1948 162.166 90.6462 160.933 93.1988V59.7673C146.627 59.7673 132.911 66.1601 122.799 77.5289C112.687 88.9032 107 104.326 107 120.412C107 136.498 112.681 151.926 122.799 163.295C132.911 174.669 146.632 181.062 160.933 181.062V147.63C170.477 167.41 190.74 181.062 214.197 181.062H274.599L288.54 97.9667C291.896 77.9787 276.463 59.7673 256.165 59.7673H256.171Z" fill="white"/>
<path d="M491.233 159.921C496.351 159.921 499.161 162.483 499.161 167.268C499.161 172.02 496.15 174.649 491.133 174.649H481.232V151.058H486.015V159.921H491.233ZM501.937 151.058H506.72V174.649H501.937V151.058ZM490.966 170.066C493.207 170.066 494.344 169.088 494.344 167.201C494.344 165.314 493.307 164.438 491.066 164.438H486.015V170.066H490.966Z" fill="white"/>
<path d="M474.479 169.8H477.776V178.938H473.062V174.319H457.435V178.938H452.72V169.8H455.984C456.511 169.268 456.841 168.338 457.105 166.71L459.577 151.058H474.479V169.8ZM461.72 167.175C461.556 168.238 461.325 169.102 461.094 169.8H469.765V155.577H463.567L461.72 167.175Z" fill="white"/>
<path d="M439.158 151.058H449.264V174.649H444.463V166.527H441.475L435.7 174.649H429.824L436.136 166.055C433.014 165.078 431.133 162.55 431.133 158.776C431.133 154.024 434.088 151.058 439.158 151.058ZM439.661 162.146H444.463V155.641H439.661C437.177 155.641 435.968 156.922 435.968 158.91C435.968 160.899 437.177 162.146 439.661 162.146Z" fill="white"/>
<path d="M419.776 151.058C424.788 151.058 428.096 154.024 428.096 158.978C428.096 163.932 424.788 167.033 419.776 167.033H414.73V174.649H409.952V151.058H419.776ZM419.575 162.449C422.048 162.449 423.251 161.101 423.251 159.045C423.251 156.956 422.048 155.641 419.575 155.641H414.73V162.449H419.575Z" fill="white"/>
<path d="M406.928 151.058V155.641H400.056V174.649H395.19V155.641H388.352V151.058H406.928Z" fill="white"/>
<path d="M374.079 150.629C380.916 150.629 386.192 155.805 386.192 162.639C386.192 169.474 380.916 174.649 374.079 174.649C367.243 174.649 362 169.474 362 162.639C362 155.805 367.243 150.629 374.079 150.629ZM374.079 155.141C369.898 155.141 366.779 158.293 366.779 162.639C366.779 166.985 369.898 170.137 374.079 170.137C378.261 170.137 381.38 166.985 381.38 162.639C381.38 158.293 378.261 155.141 374.079 155.141Z" fill="white"/>
<path d="M632 86.8457H621.18V91.4249H631.107V95.8416H621.18V100.746H632V105.162H616.448V82.4289H632V86.8457Z" fill="white"/>
<path d="M606.137 82.4289H611.696V105.162H606.849V95.6468L607.289 89.2489L596.951 105.162H591.392V82.4289H596.239V91.9445L595.799 98.3423L606.137 82.4289Z" fill="white"/>
<path d="M588.368 105.162H582.42L573.68 94.5426V105.162H568.928V82.4289H573.68V92.4966L581.954 82.4289H587.836L578.698 93.4384L588.368 105.162Z" fill="white"/>
<path d="M553.776 105.591C546.811 105.591 541.712 100.508 541.712 93.7956C541.712 87.0832 546.811 82 553.776 82C559.341 82 563.674 85.3562 565.04 90.2113H559.941C558.841 87.8652 556.609 86.4315 553.743 86.4315C549.444 86.4315 546.511 89.527 546.511 93.7956C546.511 98.0642 549.444 101.16 553.743 101.16C556.609 101.16 558.841 99.726 559.941 97.3799H565.04C563.674 102.235 559.341 105.591 553.776 105.591Z" fill="white"/>
<path d="M539.12 86.8457H527.999V91.4249H538.202V95.8416H527.999V100.746H539.12V105.162H523.136V82.4289H539.12V86.8457Z" fill="white"/>
<path d="M513.588 82.4289H518.384V105.162H513.588V97.1407C512.381 97.6603 510.771 98.0825 508.524 98.0825C503.594 98.0825 500.24 95.7117 500.24 90.2882V82.4289H505.069V89.7036C505.069 92.6914 506.713 93.6657 509.53 93.6657C511.14 93.6657 512.649 93.4059 513.588 92.8213V82.4289Z" fill="white"/>
<path d="M491.385 82.4289H496.352V105.162H491.385V95.7442H480.583V105.162H475.616V82.4289H480.583V91.3274H491.385V82.4289Z" fill="white"/>
<path d="M472.592 86.8457H461.471V91.4249H471.674V95.8416H461.471V100.746H472.592V105.162H456.608V82.4289H472.592V86.8457Z" fill="white"/>
<path d="M449.798 100.883H453.152V109.881H448.356V105.333H432.46V109.881H427.664V100.883H430.984C431.521 100.359 431.856 99.443 432.124 97.8398L434.64 82.4289H449.798V100.883ZM436.82 98.2979C436.652 99.3449 436.417 100.196 436.182 100.883H445.003V86.8788H438.698L436.82 98.2979Z" fill="white"/>
<path d="M429.824 82.4289L417.78 105.162H412.472L416.652 97.303L408.656 82.4289H413.965L419.306 92.2692L424.515 82.4289H429.824Z" fill="white"/>
<path d="M405.632 82.4289V86.8457H399.079V105.162H394.44V86.8457H387.92V82.4289H405.632Z" fill="white"/>
<path d="M374.064 105.591C367.099 105.591 362 100.508 362 93.7956C362 87.0832 367.099 82 374.064 82C379.629 82 383.962 85.3562 385.328 90.2113H380.229C379.129 87.8652 376.897 86.4315 374.031 86.4315C369.732 86.4315 366.799 89.527 366.799 93.7956C366.799 98.0642 369.732 101.16 374.031 101.16C376.897 101.16 379.129 99.726 380.229 97.3799H385.328C383.962 102.235 379.629 105.591 374.064 105.591Z" fill="white"/>
<path d="M573.347 121.248H562.468V125.939H572.448V130.464H562.468V135.488H573.347V140.012H557.71V116.723H573.347V121.248Z" fill="white"/>
<path d="M537.962 125.473C543.052 125.473 545.847 128.002 545.847 132.726C545.847 137.417 542.852 140.012 537.862 140.012H528.014V116.723H532.772V125.473H537.962ZM548.608 116.723H553.366V140.012H548.608V116.723ZM537.696 135.488C539.925 135.488 541.056 134.523 541.056 132.66C541.056 130.797 540.025 129.932 537.795 129.932H532.772V135.488H537.696Z" fill="white"/>
<path d="M518.199 116.723H522.956V140.012H518.199V130.364H507.852V140.012H503.094V116.723H507.852V125.839H518.199V116.723Z" fill="white"/>
<path d="M488.054 140.412C481.1 140.412 476.01 135.221 476.01 128.368C476.01 121.514 481.1 116.324 488.054 116.324C493.61 116.324 497.935 119.751 499.299 124.708H494.209C493.111 122.313 490.882 120.849 488.02 120.849C483.729 120.849 480.801 124.01 480.801 128.368C480.801 132.726 483.729 135.887 488.02 135.887C490.882 135.887 493.111 134.423 494.209 132.028H499.299C497.935 136.985 493.61 140.412 488.054 140.412Z" fill="white"/>
<path d="M466.521 116.723H471.978V140.012H467.22V130.264L467.652 123.71L457.505 140.012H452.049V116.723H456.807V126.471L456.374 133.026L466.521 116.723Z" fill="white"/>
<path d="M444.724 127.47C447.219 128.301 448.417 130.564 448.417 133.292C448.417 137.55 445.356 140.012 440.565 140.012H430.285V116.723H440.498C444.79 116.723 447.618 118.786 447.618 122.779C447.618 125.107 446.62 126.505 444.724 127.47ZM442.827 123.577C442.827 121.88 441.862 121.248 439.866 121.248H435.042V125.939H439.999C441.962 125.939 442.827 125.141 442.827 123.577ZM440.465 135.488C442.894 135.488 443.592 134.456 443.592 132.893C443.592 131.196 442.894 130.297 440.432 130.297H435.042V135.488H440.465Z" fill="white"/>
<path d="M418.428 116.723C423.418 116.723 426.712 119.651 426.712 124.542C426.712 129.432 423.418 132.493 418.428 132.493H413.404V140.012H408.646V116.723H418.428ZM418.228 127.969C420.69 127.969 421.888 126.638 421.888 124.608C421.888 122.546 420.69 121.248 418.228 121.248H413.404V127.969H418.228Z" fill="white"/>
<path d="M404.854 121.248H393.975V125.939H403.956V130.464H393.975V135.488H404.854V140.012H389.217V116.723H404.854V121.248Z" fill="white"/>
<path d="M374.177 140.412C367.223 140.412 362.133 135.221 362.133 128.368C362.133 121.514 367.223 116.324 374.177 116.324C379.733 116.324 384.058 119.751 385.422 124.708H380.332C379.234 122.313 377.005 120.849 374.143 120.849C369.852 120.849 366.924 124.01 366.924 128.368C366.924 132.726 369.852 135.887 374.143 135.887C377.005 135.887 379.234 134.423 380.332 132.028H385.422C384.058 136.985 379.733 140.412 374.177 140.412Z" fill="white"/>
</svg>
