<svg width="794" height="264" viewBox="0 0 794 264" fill="none" xmlns="http://www.w3.org/2000/svg">
<path d="M198.37 204C161.92 204 132.373 174.493 132.373 138.093V131.814C168.822 131.814 198.37 161.321 198.37 197.721V204Z" fill="white"/>
<path d="M198.376 204C234.825 204 264.373 174.493 264.373 138.093V131.814C227.924 131.814 198.376 161.321 198.376 197.721V204Z" fill="white"/>
<path d="M198.37 72.1863C161.92 72.1863 132.373 42.6788 132.373 6.2793V3.55312e-05C168.822 3.55312e-05 198.37 29.5138 198.37 65.9133V72.1926V72.1863Z" fill="white"/>
<path d="M198.376 72.1862C234.825 72.1862 264.373 42.6788 264.373 6.27926V0C227.924 0 198.376 29.5075 198.376 65.907V72.1862Z" fill="white"/>
<path d="M198.37 138.099C161.92 138.099 132.373 108.592 132.373 72.1925V65.9132C168.822 65.9132 198.37 95.4207 198.37 131.82V138.099Z" fill="white"/>
<path d="M198.376 138.099C234.825 138.099 264.373 108.592 264.373 72.1925V65.9132C227.924 65.9132 198.376 95.4207 198.376 131.82V138.099Z" fill="white"/>
<path d="M75.4003 207.804C141.216 265.411 219.153 281.154 250.161 243.692C257.701 234.583 261.755 223.184 262.627 210.317C260.972 219.212 257.461 227.168 251.958 233.814C223.054 268.722 150.405 254.052 89.0557 200.372C27.706 146.693 1.65486 75.6738 30.559 40.7659C49.5954 17.7753 87.6065 16.2898 128.868 33.29C80.548 10.1449 34.7127 9.85848 12.6452 36.519C-18.3631 73.9811 9.58454 150.197 75.4003 207.804Z" fill="white"/>
<path d="M457.799 162.667C462.899 162.667 465.7 165.204 465.7 169.943C465.7 174.649 462.699 177.252 457.699 177.252H447.831V153.889H452.598V162.667H457.799ZM468.467 153.889H473.234V177.252H468.467V153.889ZM457.532 172.713C459.766 172.713 460.899 171.745 460.899 169.876C460.899 168.007 459.866 167.139 457.632 167.139H452.598V172.713H457.532Z" fill="white"/>
<path d="M441.101 172.45H444.387V181.5H439.688V176.926H424.113V181.5H419.414V172.45H422.667C423.193 171.923 423.522 171.002 423.784 169.389L426.249 153.889H441.101V172.45ZM428.385 169.85C428.22 170.903 427.99 171.759 427.76 172.45H436.402V158.365H430.225L428.385 169.85Z" fill="white"/>
<path d="M405.898 153.889H415.97V177.252H411.185V169.209H408.207L402.451 177.252H396.595L402.886 168.741C399.774 167.774 397.9 165.27 397.9 161.532C397.9 156.826 400.845 153.889 405.898 153.889ZM406.4 164.87H411.185V158.428H406.4C403.923 158.428 402.719 159.697 402.719 161.666C402.719 163.635 403.923 164.87 406.4 164.87Z" fill="white"/>
<path d="M386.58 153.889C391.576 153.889 394.873 156.826 394.873 161.733C394.873 166.639 391.576 169.709 386.58 169.709H381.552V177.252H376.789V153.889H386.58ZM386.38 165.17C388.845 165.17 390.044 163.835 390.044 161.799C390.044 159.73 388.845 158.428 386.38 158.428H381.552V165.17H386.38Z" fill="white"/>
<path d="M373.775 153.889V158.428H366.926V177.252H362.077V158.428H355.262V153.889H373.775Z" fill="white"/>
<path d="M341.037 153.465C347.85 153.465 353.109 158.59 353.109 165.358C353.109 172.127 347.85 177.252 341.037 177.252C334.223 177.252 328.998 172.127 328.998 165.358C328.998 158.59 334.223 153.465 341.037 153.465ZM341.037 157.933C336.869 157.933 333.76 161.054 333.76 165.358C333.76 169.662 336.869 172.784 341.037 172.784C345.204 172.784 348.313 169.662 348.313 165.358C348.313 161.054 345.204 157.933 341.037 157.933Z" fill="white"/>
<path d="M793.998 124.021H782.914V128.727H793.083V133.266H782.914V138.306H793.998V142.845H778.067V119.482H793.998V124.021Z" fill="white"/>
<path d="M758.588 128.26C763.602 128.26 766.355 130.797 766.355 135.536C766.355 140.242 763.406 142.845 758.49 142.845H748.789V119.482H753.476V128.26H758.588ZM769.075 119.482H773.762V142.845H769.075V119.482ZM758.326 138.306C760.522 138.306 761.636 137.338 761.636 135.469C761.636 133.6 760.62 132.732 758.424 132.732H753.476V138.306H758.326Z" fill="white"/>
<path d="M739.309 119.482H744.053V142.845H739.309V133.166H728.992V142.845H724.248V119.482H728.992V128.627H739.309V119.482Z" fill="white"/>
<path d="M714.01 119.482H718.651V142.845H714.01V133.166H703.916V142.845H699.276V119.482H703.916V128.627H714.01V119.482Z" fill="white"/>
<path d="M695.4 124.021H684.916V128.727H694.535V133.266H684.916V138.306H695.4V142.845H680.331V119.482H695.4V124.021Z" fill="white"/>
<path d="M672.598 130.263C675.205 131.097 676.456 133.366 676.456 136.103C676.456 140.375 673.258 142.845 668.253 142.845H657.512V119.482H668.183C672.667 119.482 675.622 121.552 675.622 125.557C675.622 127.893 674.579 129.295 672.598 130.263ZM670.616 126.358C670.616 124.655 669.608 124.021 667.523 124.021H662.482V128.727H667.662C669.712 128.727 670.616 127.926 670.616 126.358ZM668.148 138.306C670.686 138.306 671.416 137.271 671.416 135.703C671.416 134.001 670.686 133.099 668.113 133.099H662.482V138.306H668.148Z" fill="white"/>
<path d="M654.067 119.482V124.021H647.377V142.845H642.641V124.021H635.984V119.482H654.067Z" fill="white"/>
<path d="M622.812 143.27C615.999 143.27 611.012 138.144 611.012 131.376C611.012 124.608 615.999 119.482 622.812 119.482C628.257 119.482 632.494 122.866 633.831 127.762H628.843C627.768 125.396 625.583 123.951 622.78 123.951C618.575 123.951 615.706 127.072 615.706 131.376C615.706 135.68 618.575 138.801 622.78 138.801C625.583 138.801 627.768 137.356 628.843 134.99H633.831C632.494 139.886 628.257 143.27 622.812 143.27Z" fill="white"/>
<path d="M597.002 117.876C594.156 117.876 591.568 115.971 591.568 112.708V111.836H595.223V112.579C595.223 113.677 595.935 114.388 597.002 114.388C598.07 114.388 598.781 113.677 598.781 112.579V111.836H602.404V112.708C602.404 115.971 599.816 117.876 597.002 117.876ZM601.401 120.234H606.706V142.845H602.081V133.381L602.501 127.018L592.636 142.845H587.331V120.234H591.956V129.699L591.536 136.062L601.401 120.234Z" fill="white"/>
<path d="M572.316 119.482H582.164V142.845H577.486V134.802H574.573L568.946 142.845H563.22L569.371 134.334C566.328 133.366 564.496 130.863 564.496 127.125C564.496 122.419 567.375 119.482 572.316 119.482ZM572.807 130.463H577.486V124.021H572.807C570.385 124.021 569.208 125.29 569.208 127.259C569.208 129.228 570.385 130.463 572.807 130.463Z" fill="white"/>
<path d="M557.504 130.818C559.702 131.705 561.067 133.643 561.067 136.239C561.067 140.641 557.604 143.27 552.143 143.27C546.982 143.27 542.953 140.806 542.553 135.713H547.382C547.781 137.98 549.379 138.801 552.043 138.801C555.04 138.801 556.239 137.651 556.239 135.779C556.239 134.202 555.34 133.216 552.41 133.216H549.046V129.109H551.81C554.141 129.109 555.506 128.518 555.506 126.809C555.506 125.166 554.441 123.951 551.644 123.951C549.379 123.951 548.047 124.641 547.581 126.776H542.786C543.286 121.914 546.915 119.482 551.81 119.482C556.905 119.482 560.335 122.275 560.335 126.185C560.335 128.189 559.236 129.93 557.504 130.818Z" fill="white"/>
<path d="M527.683 119.482C534.374 119.482 539.539 124.608 539.539 131.376C539.539 138.144 534.374 143.27 527.683 143.27C520.991 143.27 515.859 138.144 515.859 131.376C515.859 124.608 520.991 119.482 527.683 119.482ZM527.683 123.951C523.59 123.951 520.536 127.072 520.536 131.376C520.536 135.68 523.59 138.801 527.683 138.801C531.776 138.801 534.829 135.68 534.829 131.376C534.829 127.072 531.776 123.951 527.683 123.951Z" fill="white"/>
<path d="M514.567 142.845H508.94L504.168 134.802L499.495 142.845H493.9L501.338 130.73L494.262 119.482H499.857L504.3 126.992L508.775 119.482H514.37L507.163 131.097L514.567 142.845Z" fill="white"/>
<path d="M481.182 119.482C488.117 119.482 493.47 124.608 493.47 131.376C493.47 138.144 488.117 143.27 481.182 143.27C474.247 143.27 468.928 138.144 468.928 131.376C468.928 124.608 474.247 119.482 481.182 119.482ZM481.182 123.951C476.94 123.951 473.776 127.072 473.776 131.376C473.776 135.68 476.94 138.801 481.182 138.801C485.424 138.801 488.589 135.68 488.589 131.376C488.589 127.072 485.424 123.951 481.182 123.951Z" fill="white"/>
<path d="M468.928 142.845H462.736L453.639 131.931V142.845H448.692V119.482H453.639V129.829L462.252 119.482H468.375L458.862 130.797L468.928 142.845Z" fill="white"/>
<path d="M434.021 143.27C427.079 143.27 421.998 138.144 421.998 131.376C421.998 124.608 427.079 119.482 434.021 119.482C439.568 119.482 443.886 122.866 445.248 127.762H440.166C439.07 125.396 436.844 123.951 433.988 123.951C429.703 123.951 426.781 127.072 426.781 131.376C426.781 135.68 429.703 138.801 433.988 138.801C436.844 138.801 439.07 137.356 440.166 134.99H445.248C443.886 139.886 439.568 143.27 434.021 143.27Z" fill="white"/>
<path d="M410.988 128.26C416.15 128.26 418.984 130.797 418.984 135.536C418.984 140.242 415.947 142.845 410.887 142.845H400.9V119.482H405.725V128.26H410.988ZM410.718 138.306C412.979 138.306 414.126 137.338 414.126 135.469C414.126 133.6 413.08 132.732 410.819 132.732H405.725V138.306H410.718Z" fill="white"/>
<path d="M380.931 119.482H396.164V142.869H391.356V124.026H385L383.117 135.686C382.243 141.132 379.923 143.27 376.56 143.27C375.82 143.27 374.912 143.17 374.206 143.036V138.726C374.643 138.793 375.148 138.826 375.551 138.826C377.199 138.826 377.939 138.058 378.376 135.218L380.931 119.482Z" fill="white"/>
<path d="M371.623 124.021H360.839V128.727H370.732V133.266H360.839V138.306H371.623V142.845H356.123V119.482H371.623V124.021Z" fill="white"/>
<path d="M341.021 143.27C334.079 143.27 328.998 138.144 328.998 131.376C328.998 124.608 334.079 119.482 341.021 119.482C346.568 119.482 350.886 122.866 352.248 127.762H347.166C346.07 125.396 343.844 123.951 340.988 123.951C336.703 123.951 333.781 127.072 333.781 131.376C333.781 135.68 336.703 138.801 340.988 138.801C343.844 138.801 346.07 137.356 347.166 134.99H352.248C350.886 139.886 346.568 143.27 341.021 143.27Z" fill="white"/>
<path d="M598.095 90.2987H587.311V94.8335H597.204V99.2076H587.311V104.064H598.095V108.438H582.595V85.9247H598.095V90.2987Z" fill="white"/>
<path d="M572.318 85.9247H577.859V108.438H573.028V99.0146L573.467 92.6787L563.163 108.438H557.623V85.9247H562.454V95.3481L562.015 101.684L572.318 85.9247Z" fill="white"/>
<path d="M554.609 108.438H548.68L539.97 97.9211V108.438H535.234V85.9247H539.97V95.8949L548.217 85.9247H554.079L544.971 96.8276L554.609 108.438Z" fill="white"/>
<path d="M520.132 108.863C513.191 108.863 508.109 103.829 508.109 97.1814C508.109 90.5339 513.191 85.4999 520.132 85.4999C525.679 85.4999 529.997 88.8237 531.359 93.6318H526.277C525.181 91.3084 522.956 89.8885 520.099 89.8885C515.815 89.8885 512.892 92.9541 512.892 97.1814C512.892 101.409 515.815 104.474 520.099 104.474C522.956 104.474 525.181 103.054 526.277 100.731H531.359C529.997 105.539 525.679 108.863 520.132 108.863Z" fill="white"/>
<path d="M505.525 90.2987H494.442V94.8335H504.61V99.2076H494.442V104.064H505.525V108.438H489.595V85.9247H505.525V90.2987Z" fill="white"/>
<path d="M480.079 85.9247H484.859V108.438H480.079V100.494C478.876 101.009 477.271 101.427 475.032 101.427C470.118 101.427 466.775 99.0789 466.775 93.7079V85.9247H471.589V93.129C471.589 96.0879 473.227 97.0527 476.034 97.0527C477.639 97.0527 479.143 96.7954 480.079 96.2165V85.9247Z" fill="white"/>
<path d="M457.95 85.9247H462.9V108.438H457.95V99.1111H447.184V108.438H442.234V85.9247H447.184V94.7371H457.95V85.9247Z" fill="white"/>
<path d="M439.22 90.2987H428.136V94.8335H438.305V99.2076H428.136V104.064H439.22V108.438H423.289V85.9247H439.22V90.2987Z" fill="white"/>
<path d="M416.502 104.2H419.845V113.111H415.065V108.607H399.222V113.111H394.442V104.2H397.751C398.286 103.681 398.62 102.774 398.888 101.186L401.394 85.9247H416.502V104.2ZM403.567 101.64C403.4 102.677 403.166 103.519 402.932 104.2H411.723V90.3315H405.439L403.567 101.64Z" fill="white"/>
<path d="M396.595 85.9247L384.591 108.438H379.3L383.467 100.655L375.498 85.9247H380.789L386.112 95.6698L391.304 85.9247H396.595Z" fill="white"/>
<path d="M372.484 85.9247V90.2987H365.953V108.438H361.33V90.2987H354.831V85.9247H372.484Z" fill="white"/>
<path d="M341.021 108.863C334.079 108.863 328.998 103.829 328.998 97.1814C328.998 90.5339 334.079 85.4999 341.021 85.4999C346.568 85.4999 350.886 88.8237 352.248 93.6318H347.166C346.07 91.3084 343.844 89.8885 340.988 89.8885C336.703 89.8885 333.781 92.9541 333.781 97.1814C333.781 101.409 336.703 104.474 340.988 104.474C343.844 104.474 346.07 103.054 347.166 100.731H352.248C350.886 105.539 346.568 108.863 341.021 108.863Z" fill="white"/>
</svg>
