<svg width="605" height="265" viewBox="0 0 605 265" fill="none" xmlns="http://www.w3.org/2000/svg">
<path d="M75.4003 208.158C141.216 265.765 219.153 281.508 250.161 244.046C257.701 234.937 261.755 223.537 262.627 210.671C260.972 219.566 257.461 227.521 251.958 234.167C223.054 269.075 150.405 254.405 89.0557 200.726C27.706 147.047 1.65486 76.0274 30.559 41.1195C49.5954 18.1289 87.6065 16.6434 128.868 33.6436C80.548 10.4985 34.7127 10.2121 12.6452 36.8726C-18.3631 74.3347 9.58454 150.551 75.4003 208.158Z" fill="white"/>
<path d="M198 0L261.945 106.839C267.674 116.408 260.744 128.545 249.55 128.545H146.45C135.256 128.545 128.326 116.408 134.055 106.839L198 0Z" fill="white"/>
<path d="M180.689 154.885C180.689 145.283 188.445 137.5 198 137.5C207.561 137.5 215.311 145.283 215.311 154.885V215.714H180.689V154.885Z" fill="white"/>
<path d="M458.464 162.061C463.591 162.061 466.406 164.627 466.406 169.421C466.406 174.181 463.39 176.815 458.364 176.815H448.445V153.181H453.237V162.061H458.464ZM469.187 153.181H473.979V176.815H469.187V153.181ZM458.196 172.223C460.441 172.223 461.58 171.244 461.58 169.353C461.58 167.463 460.542 166.585 458.297 166.585H453.237V172.223H458.196Z" fill="white"/>
<path d="M441.68 171.957H444.983V181.112H440.26V176.484H424.605V181.112H419.882V171.957H423.152C423.68 171.424 424.01 170.492 424.275 168.861L426.752 153.181H441.68V171.957ZM428.899 169.327C428.733 170.392 428.502 171.258 428.271 171.957H436.957V157.709H430.748L428.899 169.327Z" fill="white"/>
<path d="M406.296 153.181H416.42V176.815H411.61V168.678H408.617L402.831 176.815H396.945L403.269 168.205C400.141 167.226 398.257 164.694 398.257 160.913C398.257 156.152 401.217 153.181 406.296 153.181ZM406.8 164.289H411.61V157.773H406.8C404.311 157.773 403.1 159.056 403.1 161.048C403.1 163.04 404.311 164.289 406.8 164.289Z" fill="white"/>
<path d="M386.879 153.181C391.9 153.181 395.214 156.152 395.214 161.115C395.214 166.078 391.9 169.184 386.879 169.184H381.824V176.815H377.038V153.181H386.879ZM386.678 164.593C389.155 164.593 390.36 163.242 390.36 161.183C390.36 159.09 389.155 157.773 386.678 157.773H381.824V164.593H386.678Z" fill="white"/>
<path d="M374.008 153.181V157.773H367.124V176.815H362.25V157.773H355.399V153.181H374.008Z" fill="white"/>
<path d="M341.101 152.752C347.949 152.752 353.235 157.936 353.235 164.783C353.235 171.63 347.949 176.815 341.101 176.815C334.253 176.815 329 171.63 329 164.783C329 157.936 334.253 152.752 341.101 152.752ZM341.101 157.272C336.912 157.272 333.787 160.429 333.787 164.783C333.787 169.137 336.912 172.295 341.101 172.295C345.29 172.295 348.415 169.137 348.415 164.783C348.415 160.429 345.29 157.272 341.101 157.272Z" fill="white"/>
<path d="M599.482 88.8544H588.643V93.4417H598.587V97.8663H588.643V102.779H599.482V107.204H583.903V84.4297H599.482V88.8544Z" fill="white"/>
<path d="M573.573 84.4297H579.142V107.204H574.286V97.6711L574.728 91.2619L564.371 107.204H558.802V84.4297H563.658V93.9622L563.216 100.371L573.573 84.4297Z" fill="white"/>
<path d="M555.772 107.204H549.813L541.058 96.565V107.204H536.298V84.4297H541.058V94.5153L549.347 84.4297H555.24L546.085 95.4588L555.772 107.204Z" fill="white"/>
<path d="M521.119 107.633C514.141 107.633 509.033 102.541 509.033 95.8167C509.033 89.0923 514.141 84 521.119 84C526.694 84 531.034 87.3622 532.403 92.226H527.295C526.193 89.8757 523.956 88.4394 521.085 88.4394C516.778 88.4394 513.841 91.5405 513.841 95.8167C513.841 100.093 516.778 103.194 521.085 103.194C523.956 103.194 526.193 101.758 527.295 99.4074H532.403C531.034 104.271 526.694 107.633 521.119 107.633Z" fill="white"/>
<path d="M506.436 88.8544H495.296V93.4417H505.517V97.8663H495.296V102.779H506.436V107.204H490.424V84.4297H506.436V88.8544Z" fill="white"/>
<path d="M480.859 84.4297H485.663V107.204H480.859V99.1677C479.649 99.6883 478.037 100.111 475.786 100.111C470.847 100.111 467.487 97.7362 467.487 92.303V84.4297H472.325V91.7174C472.325 94.7105 473.971 95.6865 476.794 95.6865C478.406 95.6865 479.918 95.4263 480.859 94.8407V84.4297Z" fill="white"/>
<path d="M458.616 84.4297H463.592V107.204H458.616V97.7687H447.795V107.204H442.819V84.4297H447.795V93.3441H458.616V84.4297Z" fill="white"/>
<path d="M439.79 88.8544H428.649V93.4417H438.87V97.8663H428.649V102.779H439.79V107.204H423.777V84.4297H439.79V88.8544Z" fill="white"/>
<path d="M416.955 102.916H420.315V111.93H415.51V107.374H399.586V111.93H394.781V102.916H398.107C398.645 102.392 398.981 101.474 399.25 99.8681L401.769 84.4297H416.955V102.916ZM403.953 100.327C403.785 101.376 403.55 102.228 403.315 102.916H412.151V88.8875H405.835L403.953 100.327Z" fill="white"/>
<path d="M396.945 84.4297L384.88 107.204H379.562L383.75 99.3304L375.739 84.4297H381.057L386.409 94.2876L391.627 84.4297H396.945Z" fill="white"/>
<path d="M372.71 84.4297V88.8544H366.145V107.204H361.498V88.8544H354.966V84.4297H372.71Z" fill="white"/>
<path d="M341.085 107.633C334.108 107.633 329 102.541 329 95.8167C329 89.0923 334.108 84 341.085 84C346.661 84 351.001 87.3622 352.37 92.226H347.262C346.16 89.8757 343.923 88.4394 341.052 88.4394C336.745 88.4394 333.807 91.5405 333.807 95.8167C333.807 100.093 336.745 103.194 341.052 103.194C343.923 103.194 346.16 101.758 347.262 99.4074H352.37C351.001 104.271 346.661 107.633 341.085 107.633Z" fill="white"/>
<path d="M605 123.24H594.214V127.891H604.109V132.377H594.214V137.358H605V141.844H589.497V118.754H605V123.24Z" fill="white"/>
<path d="M569.917 127.429C574.964 127.429 577.734 129.936 577.734 134.62C577.734 139.271 574.766 141.844 569.818 141.844H560.054V118.754H564.771V127.429H569.917ZM580.472 118.754H585.189V141.844H580.472V118.754ZM569.653 137.358C571.863 137.358 572.985 136.401 572.985 134.554C572.985 132.707 571.962 131.849 569.752 131.849H564.771V137.358H569.653Z" fill="white"/>
<path d="M550.322 118.754H555.039V141.844H550.322V132.278H540.064V141.844H535.347V118.754H540.064V127.792H550.322V118.754Z" fill="white"/>
<path d="M523.498 127.429C528.545 127.429 531.316 129.936 531.316 134.62C531.316 139.271 528.347 141.844 523.399 141.844H513.635V118.754H518.352V127.429H523.498ZM523.234 137.358C525.444 137.358 526.566 136.401 526.566 134.554C526.566 132.707 525.543 131.849 523.333 131.849H518.352V137.358H523.234Z" fill="white"/>
<path d="M493.684 118.754H508.627V141.844H503.91V123.24H497.675L495.828 134.752C494.971 140.129 492.695 142.24 489.396 142.24C488.67 142.24 487.78 142.141 487.087 142.009V137.754C487.516 137.819 488.011 137.852 488.406 137.852C490.023 137.852 490.748 137.094 491.177 134.29L493.684 118.754Z" fill="white"/>
<path d="M484.395 123.24H473.609V127.891H483.504V132.377H473.609V137.358H484.395V141.844H468.892V118.754H484.395V123.24Z" fill="white"/>
<path d="M465.475 118.754V123.24H458.812V141.844H454.095V123.24H447.465V118.754H465.475Z" fill="white"/>
<path d="M438.783 118.754H444.192V141.844H439.475V132.179L439.904 125.681L429.844 141.844H424.434V118.754H429.151V128.418L428.722 134.917L438.783 118.754Z" fill="white"/>
<path d="M408.557 118.358C415.352 118.358 420.597 123.504 420.597 130.299C420.597 137.094 415.352 142.24 408.557 142.24C401.762 142.24 396.55 137.094 396.55 130.299C396.55 123.504 401.762 118.358 408.557 118.358ZM408.557 122.844C404.401 122.844 401.3 125.977 401.3 130.299C401.3 134.62 404.401 137.753 408.557 137.753C412.714 137.753 415.814 134.62 415.814 130.299C415.814 125.977 412.714 122.844 408.557 122.844Z" fill="white"/>
<path d="M385.398 118.754C390.345 118.754 393.611 121.656 393.611 126.505C393.611 131.354 390.345 134.389 385.398 134.389H380.417V141.844H375.7V118.754H385.398ZM385.2 129.903C387.641 129.903 388.828 128.583 388.828 126.571C388.828 124.526 387.641 123.24 385.2 123.24H380.417V129.903H385.2Z" fill="white"/>
<path d="M372.284 118.754V123.24H365.62V141.844H360.903V123.24H354.273V118.754H372.284Z" fill="white"/>
<path d="M341.073 142.24C334.179 142.24 329.132 137.094 329.132 130.299C329.132 123.504 334.179 118.358 341.073 118.358C346.582 118.358 350.87 121.755 352.222 126.67H347.175C346.087 124.295 343.877 122.844 341.04 122.844C336.785 122.844 333.882 125.977 333.882 130.299C333.882 134.62 336.785 137.753 341.04 137.753C343.877 137.753 346.087 136.302 347.175 133.927H352.222C350.87 138.842 346.582 142.24 341.073 142.24Z" fill="white"/>
</svg>
